<?xml version="1.0" standalone="no"?>
<!DOCTYPE svg PUBLIC "-//W3C//DTD SVG 1.1//EN" "http://www.w3.org/Graphics/SVG/1.1/DTD/svg11.dtd" >
<svg xmlns="http://www.w3.org/2000/svg">
<metadata></metadata>
<defs>
<font id="kg_small_town_southern_girlRg" horiz-adv-x="1160" >
<font-face units-per-em="2048" ascent="1638" descent="-410" />
<missing-glyph horiz-adv-x="782" />
<glyph horiz-adv-x="2048" />
<glyph horiz-adv-x="2048" />
<glyph unicode="&#xd;" horiz-adv-x="782" />
<glyph unicode=" "  horiz-adv-x="782" />
<glyph unicode="&#x09;" horiz-adv-x="782" />
<glyph unicode="&#xa0;" horiz-adv-x="782" />
<glyph unicode="!" horiz-adv-x="256" d="M50 669q0 81 2 224t6 375q40 22 64 27t64 -27q0 -36 1 -110t2 -165t2 -190t2 -185t0 -148t-1 -80q-6 -24 -23 -39t-38 -16t-42 12t-37 43q2 48 2 67t-1 39t-2 56t-1 117zM54 94q4 28 20 48t40 27t52 -9q60 -70 55 -105t-38 -45t-73 0t-50 30q-10 26 -6 54z" />
<glyph unicode="&#x22;" horiz-adv-x="608" d="M50 1092q4 62 4 94q40 48 71 62t53 1t34 -50t16 -89q2 -34 10 -92t5 -112t-26 -89t-85 -21q-42 8 -59 58t-22 113t-1 125zM320 1096q4 62 4 94q40 48 71 62t53 0t34 -50t16 -90q2 -34 11 -91t6 -111t-27 -89t-86 -23q-42 8 -59 58t-22 114t-1 126z" />
<glyph unicode="#" horiz-adv-x="1778" d="M71 801q-1 25 2 47t13 34l384 24v55t-1 31t-4 22t-7 29t-9 52t-11 89q-8 26 13 50t54 38t66 13t49 -21q8 -10 9 -28t2 -56t5 -99t16 -155v-8q58 -2 107 -3t95 0t95 7t107 18q2 16 4 13t3 -8t1 -4t-1 24t-3 77t-6 154q-6 24 20 51t60 39t63 -2t29 -72q2 -44 1 -76t-1 -62 t2 -61t10 -69q12 -6 54 -1t91 14t92 16t57 7q8 0 28 -17t33 -41t13 -51t-30 -47q-38 -16 -83 -20t-91 -6t-90 -5t-80 -19q8 -56 11 -99t3 -77v-62t4 -54q66 -8 145 -4t146 -6t109 -49t34 -133l-410 -10q0 -26 7 -69t13 -85t6 -75t-12 -41q-36 -10 -68 -20t-56 13t-39 94 t-17 225q-42 2 -82 1t-84 -3t-97 -4t-119 2q0 -18 10 -62t18 -89t8 -81t-20 -40q-42 -26 -69 -20t-44 33t-27 67t-16 81t-11 75t-15 48h-324h-65t-57 12t-34 44t8 96q42 16 101 18t120 0t121 -2t106 12l-38 244l-400 -32q-12 10 -19 32t-8 47zM680 756q2 -10 6 -47t8 -79 t7 -80t7 -46l386 -14q-2 30 -6 68t-8 78t-6 78t0 68q-58 2 -105 0t-92 -6t-92 -10t-105 -10z" />
<glyph unicode="$" horiz-adv-x="1240" d="M38 504q14 32 35 54t41 33t38 7t28 -24l10 2v-8q0 -158 97 -268t313 -144q22 58 34 101t18 85t11 87t13 105q-56 10 -120 58t-114 115t-76 144t-3 146t104 119t243 66l8 172q-12 24 0 41t35 26t51 9t49 -11t29 -33t-8 -58q0 -88 -2 -124t-2 -42t2 3t10 11q48 -8 73 -11 t44 -7t40 -12t63 -26q28 -12 55 -33t39 -45t-1 -49t-63 -47q-30 -10 -54 6t-52 38t-63 38t-85 4l-24 -452q82 -36 135 -89t77 -114t19 -121t-42 -110t-105 -82t-168 -36l-8 -8l-3 -19t-8 -45l-10 -52t-7 -44q-2 -28 -8 -34t-21 -2t-39 12t-60 8q-26 22 -35 37t-8 29t7 32 t12 48q-128 20 -220 51t-157 89t-105 148t-62 226zM529 919q-3 -45 18 -91t58 -84t73 -40q-2 14 4 48t14 75t12 82t-6 67t-38 31t-84 -25q-48 -18 -51 -63zM782 176q66 26 93 67t26 78t-24 60t-57 15q-8 -38 -14 -62t-11 -45t-8 -47t-5 -66z" />
<glyph unicode="%" horiz-adv-x="882" d="M76 90l600 1114q16 24 42 29t48 -4t35 -31t5 -52l-582 -1122q-44 -32 -88 -10t-60 76zM124 1103q0 37 24 61t64 29t76 -23q42 -34 40 -69t-28 -60t-64 -31t-68 20q-44 36 -44 73zM586 169q0 37 24 61t63 29t75 -23q42 -34 40 -70t-27 -60t-63 -30t-68 20q-44 36 -44 73z " />
<glyph unicode="&#x26;" horiz-adv-x="1056" d="M32 143q0 63 32 126t84 122t98 101q14 22 3 60t-32 86t-44 106t-31 122t7 132t69 136q50 56 116 91t138 46t146 -7t140 -68q62 -62 72 -124t-12 -122t-69 -117t-101 -113t-105 -110t-83 -104q-6 -4 6 -25t35 -52t53 -65t57 -64t49 -51t30 -25q48 10 83 31t64 48t57 56 t60 53q56 -20 73 -47t5 -57t-44 -60t-71 -55t-78 -44t-65 -27q6 -18 31 -45t54 -56t54 -57t30 -49t-19 -33t-92 -10q-24 0 -54 26t-58 59t-53 67t-39 50q-50 -18 -122 -44t-148 -41t-147 -10t-119 47q-60 54 -60 117zM197 180q-5 -36 21 -58t71 -23t106 20t127 71 q-10 12 -33 38t-48 55t-46 54t-27 31q-86 -54 -126 -103t-45 -85zM287 826q7 -82 79 -182l10 6q38 38 85 81t91 92t78 104t44 121q-6 50 -51 66t-104 5t-116 -49t-90 -100t-26 -144z" />
<glyph unicode="'" horiz-adv-x="314" d="M78 926q4 26 22 38t39 12t40 -12t25 -36l64 -222q6 -20 -7 -33t-33 -21t-41 -11t-33 -1q-22 26 -37 62t-25 75t-13 77t-1 72z" />
<glyph unicode="(" horiz-adv-x="468" d="M1 497q-7 143 10 291t56 295t101 285q18 32 45 44t55 8t54 -21t42 -43q2 -2 2 -6t-2 -4q-96 -198 -150 -385t-51 -368t73 -358t224 -357q18 -18 -2 -36t-53 -31t-68 -17t-49 8q-90 78 -151 186t-95 237t-41 272z" />
<glyph unicode=")" horiz-adv-x="468" d="M-28 -122q154 180 225 357t74 358t-52 368t-151 385v10q16 26 42 43t54 21t55 -8t45 -44q92 -206 135 -432t32 -439t-81 -396t-204 -299q-14 -12 -49 -8t-69 17t-54 31t-2 36z" />
<glyph unicode="*" horiz-adv-x="946" d="M70 814q-2 48 11 71t37 29t54 2t60 -10t56 -8t44 12q-2 42 5 97t27 93t57 42t95 -56l108 -228q20 4 57 16t76 17t74 -2t53 -43q18 -38 2 -56t-45 -30t-62 -24t-49 -36t-5 -66t71 -114q24 -24 12 -39t-43 -21t-75 -1t-84 22t-69 47t-33 74q-10 -12 -49 -48t-85 -64 t-88 -37t-58 33q16 50 28 110t1 111t-52 82t-131 25z" />
<glyph unicode="+" horiz-adv-x="928" d="M70 538q8 78 22 118t33 55t44 12t56 -11t68 -14t79 6l-8 302q0 26 24 37t54 11t58 -9t38 -27q20 -42 23 -80t1 -77t-3 -80t9 -87q50 -18 112 -18t112 -7t74 -33t-2 -98q-34 -28 -66 -36t-64 -8t-67 4t-77 0q0 -22 2 -63t3 -85t-4 -85t-22 -65t-49 -23t-84 41 q-20 10 -25 40t-6 71t-4 88t-19 93q-46 12 -91 10t-85 -5t-75 -1t-61 24z" />
<glyph unicode="," horiz-adv-x="320" d="M98 -150q20 60 17 128t-5 132q-10 30 -8 66t16 60t41 29t69 -25q28 -36 37 -91t5 -112t-19 -110t-39 -84t-53 -33t-61 40z" />
<glyph unicode="-" horiz-adv-x="844" d="M128 465q-14 37 3 68t60 51t97 12l384 -8q40 4 76 -11t53 -41t9 -58t-56 -62l-552 -12q-60 24 -74 61z" />
<glyph unicode="." horiz-adv-x="416" d="M130 125q0 37 24 61t64 29t76 -23q42 -34 40 -69t-28 -60t-64 -31t-68 20q-44 36 -44 73z" />
<glyph unicode="/" horiz-adv-x="678" d="M32 82q-10 30 6 54l454 1092q8 30 33 48t52 21t50 -15t27 -60l-480 -1152q-26 -46 -57 -50t-53 14t-32 48z" />
<glyph unicode="0" horiz-adv-x="1030" d="M24 656q2 34 17 91t41 123t60 133t76 122t91 92t103 41q92 12 176 -17t154 -88t124 -142t85 -179t36 -198t-19 -200t-83 -185t-157 -151q-98 -76 -191 -97t-174 2t-146 83t-111 147t-68 196t-14 227zM183 486q5 -94 37 -158q40 -108 105 -151t139 -39t149 47t133 108 t92 143t26 154q4 66 -15 126t-51 114t-74 105t-84 101q-88 62 -163 51t-132 -69t-95 -149t-55 -190t-12 -193z" />
<glyph unicode="1" horiz-adv-x="326" d="M64 1224q16 60 46 67t59 -13t50 -55t21 -59l34 -1094q-4 -24 -19 -38t-34 -19t-38 -2t-31 11q-24 14 -36 38t-19 72t-10 128t-5 209t-6 313t-12 442z" />
<glyph unicode="2" horiz-adv-x="1004" d="M59 1066q-3 28 35 66q28 38 88 72t134 55t154 23t150 -22q84 -32 120 -93t36 -140t-26 -167t-64 -171t-81 -156t-73 -121q-8 -12 -31 -44t-49 -67t-50 -68t-34 -49h12q120 12 242 13t246 -1q42 -8 66 -38t28 -63t-14 -59t-58 -26q-90 12 -180 7l-180 -10t-178 -5t-172 22 q-46 12 -65 35t-21 52t13 58t39 51q86 72 144 139t103 139t83 153t86 181q48 92 51 153t-23 94t-75 42t-104 -4t-109 -46t-90 -81q-28 -2 -64 5t-61 25t-28 46z" />
<glyph unicode="3" horiz-adv-x="978" d="M51 661q3 37 17 63t28 16q56 12 103 26t91 31t88 38t96 47q112 58 145 104t15 75t-75 39t-123 -1t-129 -46t-93 -97q-36 -4 -72 10t-57 38t-20 55t41 61q144 98 282 132t245 20t171 -70t58 -140t-94 -190t-282 -218q194 -78 291 -154t121 -146t-13 -129t-110 -105 t-171 -75t-196 -37t-183 8t-135 60q-16 10 -20 37t10 52t47 38t91 -5q190 -26 296 -6t142 64t10 101t-100 103t-187 71t-251 7q-48 12 -64 49t-13 74z" />
<glyph unicode="4" horiz-adv-x="966" d="M32 748q128 144 213 255t147 179t111 91t105 -9q72 -42 97 -109t29 -144t-1 -154t5 -141q48 -18 85 -11t64 13t43 -4t24 -60q4 -44 -6 -67t-30 -32t-45 -9t-49 2t-45 0t-31 -16q-10 -24 -2 -77t19 -115t19 -126t-1 -113t-41 -73t-102 -6q-22 14 -31 29t-11 31t-1 36 t-1 44q-4 44 -11 111t-13 129t-12 107l-6 45q-186 8 -294 16t-162 27t-65 54t-1 97zM289 819q-13 -39 5 -66t75 -36t163 9q18 20 24 67t4 100t-10 102t-18 73q-56 -34 -107 -78t-87 -88t-49 -83z" />
<glyph unicode="5" horiz-adv-x="966" d="M70 769q0 117 39 217t123 170t228 84q4 0 35 4t71 9l80 10t64 9q32 4 66 -13t55 -42t19 -53t-44 -46q-52 -14 -117 -22t-131 -18t-126 -27t-101 -51t-57 -89t8 -141q126 20 242 -8t204 -87t142 -142t58 -173t-50 -180t-180 -164q-64 -22 -148 -31t-168 0t-158 42t-122 97 q-10 66 16 87t104 11q80 -40 157 -61t167 -5q56 10 100 49t64 89t12 104t-56 94q-78 50 -148 73t-139 26t-138 -10t-145 -37q-26 108 -26 225z" />
<glyph unicode="6" horiz-adv-x="800" d="M46 380q-10 72 1 177t36 223t62 240t81 224q8 18 33 25t54 7t53 -8t30 -22l8 -12q-16 -46 -50 -118t-70 -161t-65 -189t-37 -200t14 -194t90 -172q22 102 62 200t92 167t112 99t124 -2q74 -50 92 -125t-3 -157t-74 -161t-123 -135t-149 -80t-152 3t-132 115t-89 256z M428 233q-4 -41 14 -71q6 -10 30 3t53 41t59 68t49 85t22 92t-21 89q-14 6 -39 -11t-52 -49t-52 -75t-42 -87t-21 -85z" />
<glyph unicode="7" horiz-adv-x="832" d="M27 1120q-3 26 9 74q52 18 126 32t156 21t163 7t145 -8t105 -25t43 -45l-62 -1154q-84 -24 -119 22t-40 135t9 209t29 246t19 244t-20 204q-12 0 -48 -1t-86 -3t-107 -4t-106 -4t-86 -3t-47 -1q-20 0 -38 2t-30 14t-15 38z" />
<glyph unicode="8" horiz-adv-x="832" d="M40 1097q12 47 55 82t111 55t143 28t150 2t133 -26t91 -53t25 -79q-66 -66 -113 -129t-103 -141q20 -14 54 -62t71 -116t71 -148t53 -159t19 -151t-30 -121t-98 -70t-182 1q-102 46 -173 134t-103 194t-19 218t77 204q-16 32 -42 59t-55 53t-58 53t-51 63q-38 62 -26 109 zM289 1021q7 -37 91 -77q10 8 36 31t52 48t44 50t12 39q-52 16 -113 7t-95 -35t-27 -63zM409 381q35 -121 141 -207q42 2 61 29t20 68t-15 91t-43 100t-63 94t-76 74q-60 -128 -25 -249z" />
<glyph unicode="9" horiz-adv-x="890" d="M41 799q-5 85 36 172t134 166t249 137q138 24 220 -7t123 -104t50 -181t1 -236q-12 -92 -10 -193t6 -195t2 -175t-21 -134t-61 -72t-120 11q0 80 6 170t13 184t12 191t3 191q-88 -118 -178 -170t-171 -54t-147 39t-104 108t-43 152zM215 782q7 -54 47 -78q60 -36 117 -16 t105 65t85 100t57 89q26 52 15 87t-45 50t-83 12t-101 -27t-99 -68t-77 -108q-28 -52 -21 -106z" />
<glyph unicode=":" horiz-adv-x="460" d="M137 426q-1 30 18 51t52 34t66 15t60 -9t35 -35q10 -34 -10 -66t-53 -52t-70 -23t-63 21q-34 34 -35 64zM139 853q-1 29 18 50t52 34t66 15t60 -9t35 -35q12 -34 -8 -66t-53 -52t-71 -23t-64 23q-34 34 -35 63z" />
<glyph unicode=";" horiz-adv-x="326" d="M79 569q-1 31 12 60t35 49t40 12q50 -4 65 -41t5 -75t-44 -59t-84 7q-28 16 -29 47zM98 -150q20 60 17 128t-5 132q-10 30 -8 66t16 60t41 29t69 -25q28 -36 37 -91t5 -112t-19 -110t-39 -84t-53 -33t-61 40z" />
<glyph unicode="&#x3c;" horiz-adv-x="868" d="M33 623q-1 21 8 40t27 27q96 24 172 46t149 45t149 45t172 46q24 -12 42 -38t23 -53t-7 -52t-48 -33q-36 0 -90 -14t-111 -31t-111 -34t-94 -25q44 -36 103 -66t118 -57t108 -54t74 -57t18 -67t-63 -83l-604 348q-16 8 -25 27t-10 40z" />
<glyph unicode="=" horiz-adv-x="770" d="M112 510q-2 22 11 41t39 29q18 6 64 14t102 11t115 2t107 -11t76 -30t22 -52q-6 -36 -50 -48t-110 -14t-148 -2t-166 -10q-30 10 -45 29t-17 41zM126 278q-2 22 11 41t39 29q18 4 62 9t100 8t115 1t107 -10t77 -26t25 -48q-6 -46 -50 -62t-110 -18t-148 3t-166 3 q-30 10 -45 29t-17 41z" />
<glyph unicode="&#x3e;" horiz-adv-x="838" d="M69 726q5 28 24 54t43 38q96 -24 172 -47t148 -45t148 -45t172 -47q20 -6 28 -25t8 -40t-10 -40t-26 -27l-602 -348q-56 46 -63 83t18 67t74 57t108 54t118 57t103 66q-40 8 -95 25t-112 34t-110 30t-91 13q-36 10 -48 34t-7 52z" />
<glyph unicode="?" horiz-adv-x="704" d="M70 1033q6 31 28 60t51 53t47 36q72 48 159 66t159 -1t114 -79t26 -170q-10 -58 -47 -118t-83 -116t-93 -106t-77 -90q-16 -24 -17 -53t1 -57t3 -52t-13 -42t-49 -25t-101 1q-4 64 0 127t32 123q6 14 42 53t81 89t87 106t61 107t5 89t-82 54q-52 12 -98 -14t-85 -57 t-72 -49t-59 8t-20 57zM188 105q0 37 24 62t64 30t76 -23q42 -34 40 -70t-28 -60t-64 -31t-68 19q-44 36 -44 73z" />
<glyph unicode="@" horiz-adv-x="1332" d="M47 545q-11 113 11 222t75 206t137 167q100 94 205 125t207 14t197 -73t173 -134t135 -170t85 -181t20 -167t-58 -129t-149 -66t-255 23q-40 -62 -97 -95t-123 -44t-136 -2t-134 33q54 -80 129 -115t159 -44t172 -2t170 9q-24 -84 -87 -115t-141 -34t-159 10t-143 21 q-122 52 -206 137t-130 188t-57 216zM218 666q0 -80 26 -154q24 118 87 211t149 141t188 44t204 -82q20 -10 21 -40t-5 -70t-9 -82t9 -73t48 -45t110 2q50 40 56 103t-20 132t-79 137t-124 119t-153 76t-167 9t-166 -81t-149 -195q-26 -72 -26 -152zM435 536q-17 -52 7 -96 t116 -58q64 -12 99 13t53 72t24 104t10 107q-8 56 -51 60t-94 -23t-99 -77t-65 -102z" />
<glyph unicode="A" d="M67 450q5 16 20 27t34 17t33 10q12 -2 14 2t-1 26t-10 68t-16 130t-18 213t-15 315q36 8 62 8q19 0 32 -4q32 -10 44 -40q11 -28 11 -70v-7q-1 -47 -3 -109q-1 -18 -1 -36q0 -47 4 -99q5 -73 27 -155q-2 36 -2 69q0 133 26 230q32 121 89 183t130 63h2q72 0 146 -60 q75 -61 145 -187t120 -318q48 -186 86 -303t63 -191t37 -116q8 -28 8 -52q0 -12 -2 -24q-33 -20 -60 -20q-23 0 -41 14q-41 30 -70 89t-47 126t-32 103q-16 8 -56 13t-100 7t-137 3t-165 1q-6 -30 -9 -67t-3 -75t1 -74t1 -62q-18 -22 -47 -29t-58 -5t-51 12t-28 22 q-2 24 -5 58t-7 72t-12 75t-20 65q-6 12 -22 13t-33 1t-33 5t-24 23q-8 17 -8 30q0 5 1 10zM438 548v-15q0 -34 8 -37q94 2 192 2t186 -18q-12 26 -36 101t-55 166t-66 184t-71 157q-5 2 -9 2l-35 -30q-22 -38 -42 -103t-36 -144t-25 -148t-11 -117z" />
<glyph unicode="B" horiz-adv-x="1106" d="M52 1064q-7 31 -7 63q0 37 9 75q24 22 45 24t40 -4t36 -17t33 -15q12 -4 34 4t44 18t43 20t31 12q99 38 180 38q18 0 35 -2q95 -10 160 -54t98 -112q29 -59 29 -120q0 -9 -1 -19q-5 -71 -50 -134t-135 -97q24 3 48 3q32 0 66 -5q58 -8 109 -31t90 -62t59 -95t20 -107 q0 -22 -4 -42q-12 -69 -52 -125t-102 -99t-134 -73t-148 -47t-146 -19q-61 -32 -99 -32q-7 0 -14 1q-41 7 -61 42t-28 91t-14 116t-18 116t-40 92q-32 24 -44 43t-13 39t4 41t9 49q-2 82 -26 153t-48 138t-38 133zM274 978l54 -224q4 -18 35 -4t67 39t65 49l29 24 q92 84 129 141q35 54 35 87q0 37 -36 52q-30 12 -71 12h-12q-49 -2 -104 -17t-100 -40t-72 -56q-21 -24 -21 -48q0 -8 2 -15zM378 450q6 -48 34 -108t48 -130q47 -8 90 -8q71 0 130 21q96 33 153 91t72 126q5 20 5 39q0 43 -25 77q-35 48 -123 62q-19 3 -41 3 q-79 0 -197 -39q-94 -18 -123 -52q-24 -28 -24 -66q0 -8 1 -16z" />
<glyph unicode="C" horiz-adv-x="944" d="M44 684q-1 25 -1 49q0 93 18 177q23 106 67 187t104 130t126 53h10q61 0 123 -44q67 -48 127 -160q9 -19 9 -36q0 -14 -6 -26q-13 -28 -40 -45t-59 -21t-54 12q-58 82 -103 89q-6 1 -12 1q-37 0 -65 -37q-32 -43 -50 -126t-20 -180v-24q0 -85 12 -172q14 -99 44 -175 t78 -119q35 -31 81 -31q17 0 35 4q60 0 112 27t96 67t80 85t66 83t55 61t47 17q9 -33 9 -67q0 -42 -14 -86q-25 -79 -80 -148t-134 -121t-165 -71q-43 -10 -85.5 -9.5t-85.5 9.5q-85 19 -155 93t-116 209t-54 345z" />
<glyph unicode="D" horiz-adv-x="978" d="M38 1110q8 40 30 75t49 57t55 25h6q25 0 44 -23q48 4 99 4h34q69 -2 137 -14t133 -36t121 -64q128 -116 174 -253q34 -100 34 -200q0 -37 -5 -74q-17 -137 -87 -259t-174 -207t-230 -120q-59 -16 -118 -16q-68 0 -138 21q-28 6 -58 30t-47 54t-13 61t44 53q1 21 1 44 q0 57 -4 123q-5 93 -12 193t-14 198t-9 180q-38 30 -49 69q-6 23 -6 45q0 17 3 34zM254 1046q8 -210 19 -436t39 -438h10q75 0 143 28q73 30 133 87t104 140t66 191q2 34 2 64q0 92 -18 158q-24 88 -76 142t-131 80t-179 34q-12 2 -32 2t-38 -5t-31 -16q-11 -10 -11 -26v-5z " />
<glyph unicode="E" horiz-adv-x="1118" d="M52 706q-11 45 -11 88q0 56 19 110q34 94 114 171t184 128t222 70q55 9 107 8q61 0 119 -11q32 -10 44 -30t9 -42t-18 -44t-35 -36h-22q-56 0 -120 -8q-76 -10 -150 -33t-137 -61t-99 -91t-39 -121v-8q0 -65 43 -144l130 118q20 18 49 24t57 2t53 -19t37 -39 q14 -27 14 -53q0 -10 -2 -21q-8 -36 -32 -67t-57 -58t-65 -49t-56 -39t-30 -27q-6 -38 -11 -74q-4 -26 -4 -49q0 -9 1 -18q2 -31 15 -59t43 -50q32 -26 72 -25q22 0 47 7q69 22 136 72t122 110t79 96q38 62 63 91t44 36t39 -3t48 -26q2 -13 2 -26q0 -52 -26 -108 q-32 -70 -90 -134t-134 -119t-157 -90t-160 -46q-25 -3 -48 -3q-51 0 -93 16q-34 12 -67 38t-59 79t-42 139t-16 220q-106 104 -132 208z" />
<glyph unicode="F" horiz-adv-x="954" d="M47 474q0 29 23 57q24 29 72 43q2 45 2 90q0 56 -3 112q-5 100 -21 200q-36 12 -53 38t-17 55t18 54t52 37q14 8 50 10t111 12t197 33t312 73q19 5 36 5q25 0 43 -11q31 -18 41 -46q4 -11 4 -23q0 -17 -9 -35q-15 -30 -61 -42q-158 -38 -259 -61t-159 -36t-81 -21 t-27 -14q6 -26 7 -62v-25q0 -25 -1 -52q-2 -41 -3 -83v-12q0 -35 5 -67q6 -37 20 -65t44 -42q158 58 247 60h11q80 0 105 -28q12 -13 12 -30q0 -22 -20 -49q-35 -49 -127 -93q-10 -2 -37 -8t-58 -14t-59 -14t-40 -8q-54 -10 -66 -42q-7 -19 -7 -43q0 -16 3 -33q8 -44 25 -92 t21 -91q1 -7 1 -13q0 -34 -18 -60q-21 -30 -89 -38h-5q-54 0 -77 42q-24 44 -31 105t-8 126t-11 107q-58 10 -86 36q-29 27 -29 58z" />
<glyph unicode="G" horiz-adv-x="1106" d="M52 394q-2 26 -2 52q0 106 26 218q32 140 96 263t155 214t202 122q46 13 94 13q69 0 144 -26q127 -44 263 -190q10 -30 0 -55t-30 -40t-47 -19t-53 6q-94 82 -182 100q-34 7 -67 7q-51 0 -98 -17q-77 -28 -141 -94t-110 -151t-72 -182t-26 -187t27 -164t86 -115 q56 -39 144 -39h9q94 2 228 64q32 14 74 32t78 47t60 75q22 42 22 107v11q-20 14 -59 21t-84 12t-89 9t-70 10q-46 16 -69 48q-14 19 -14 45q0 18 7 39q6 14 44 20t92 6t115 -8t116 -25t95 -41t50 -58q-2 -18 -2 -43q0 -18 1 -40q3 -51 7 -107t6 -113q1 -16 1 -32 q0 -38 -4 -72q-5 -47 -20 -76t-45 -31q-17 -3 -31 -3q-29 0 -44 13q-23 20 -45 78q-218 -112 -373 -129q-39 -4 -74 -4q-106 0 -182 38q-101 51 -151 156t-58 235z" />
<glyph unicode="H" horiz-adv-x="1086" d="M104 1172q-1 4 -1 8q0 12 8 29q11 23 31 43t44 33q18 10 35 10q5 0 10 -1q21 -4 34 -28t13 -78l54 -548q18 2 36 2q44 0 89 -11q63 -15 125 -33t125 -32q44 -10 90 -10q20 0 39 2q12 102 13 183v40q0 60 -2 116t-2 113v38q1 76 13 170q6 30 24 44t41 17t45 -6t34 -27 q8 -162 9 -313t3 -300t11 -300t35 -313q-50 -44 -85 -48q-5 -1 -9 -1q-29 0 -50 22q-24 25 -38 74t-22 109t-12 125t-6 123q-142 28 -236 42t-151 17q-19 1 -34 1q-30 0 -46 -4q-23 -6 -23 -16q20 -112 31 -183t14 -114q2 -26 2 -44q0 -12 -1 -20q-2 -21 -4 -31 q-10 -36 -30 -53t-45 -18t-50 10t-41 33q-5 -12 -10 -12q-10 0 -18 48q-12 72 -26 226t-30 377t-36 489z" />
<glyph unicode="I" horiz-adv-x="424" d="M116 1214q14 24 38 41t51 22q10 2 19 2q17 0 34 -6q26 -9 42 -37q2 -156 17 -302t31 -289t27 -286q7 -93 7 -188q0 -52 -2 -105q-10 -28 -30 -43t-45 -20q-12 -2 -25 -2.5t-26 2.5q-26 5 -48 19q-4 2 -12 15t-10 17q4 84 4 140t-2 110t-7 117t-14 164t-21 251t-28 378z " />
<glyph unicode="J" horiz-adv-x="716" d="M38 114q-2 7 -2 14q0 17 10 32q14 22 52 36q66 -38 131 -38l29 2q80 10 138 59t84 126q13 37 13 77q0 42 -15 88l-224 692q-10 32 18 54t67 29q21 4 42 4l36 -3q39 -6 55 -30q-6 -14 0 -53t19 -89t30 -103t32 -96t24 -69t9 -22q46 -114 72 -234q17 -80 17 -155 q0 -38 -4 -74q-13 -109 -76 -198t-193 -141q-59 -24 -120 -24q-11 0 -22 1q-72 5 -140 33q-34 14 -55 36t-27 46z" />
<glyph unicode="K" horiz-adv-x="1032" d="M42 1202q-2 28 20 46t52 25q18 4 35 4q12 0 24 -2q29 -5 41 -21q6 -10 14 -50t17 -95t16 -116t13 -116t7 -95t-1 -50q12 4 41 29t66 63t79 83t80 86t67 74t41 49q72 62 112 62h3q27 -1 27 -33q0 -16 -7 -40q-21 -71 -117 -211t-294 -350l600 -214q44 -13 44 -49 q0 -38 -27 -76q-25 -35 -62 -51q-13 -6 -24 -6q-21 0 -35 20l-592 214q4 -4 7 -5t5 -32t4 -105t2 -222q-2 -36 -30 -54t-62 -19h-5q-31 0 -58 13q-29 14 -35 42z" />
<glyph unicode="L" horiz-adv-x="1042" d="M58 1232q32 50 69 53h8q32 0 59 -22q30 -25 48 -68q14 -32 14 -63q0 -10 -2 -20q10 -138 11 -252t3 -225t11 -230t37 -265l530 120q25 10 54 10q12 0 25 -2q43 -6 69 -25q23 -16 23 -39q0 -3 -1 -7q-4 -27 -62 -57q-174 -76 -359 -120q-120 -28 -242 -28q-67 0 -135 8 q-5 -1 -10 -1q-31 0 -51 32q-23 37 -37 106t-20 161t-7 196t-2 211t-3 206t-9 183t-21 138z" />
<glyph unicode="M" horiz-adv-x="1718" d="M10 1190q-1 7 -1 13q0 22 16 39q21 22 51 30q14 4 28 4q15 0 30 -5q28 -9 34 -43l90 -436q38 198 102 301t136 125q22 7 45 7q50 0 101 -34q74 -49 134 -152t99 -252t41 -327q40 158 107 304t145 258t160 180t151 70h4q67 0 112 -73q47 -75 59 -249q4 -78 7 -175t5 -200 t3 -201v-63q0 -61 -1 -113q-2 -78 -8 -127t-16 -53q-16 -18 -39 -27t-46 -10h-6q-20 0 -35 6q-18 7 -22 19q2 30 5 92t7 143t7 175t3 187t-2 177t-10 147t-23 98t-37 27q-46 -30 -94 -95t-96 -149t-92 -181t-82 -190t-68 -173t-48 -133t-22 -70t10 17q-28 -36 -48 -47 t-38 -6t-37 21t-43 32q0 340 -37 543t-92 287q-43 66 -91 66q-13 0 -27 -5q-63 -23 -114 -134t-80 -302q-20 -129 -20 -284q0 -75 5 -155q6 2 4 -12t-11 -32t-24 -35t-36 -22t-46 7t-55 52z" />
<glyph unicode="N" horiz-adv-x="1324" d="M54 54q2 72 6 131t7 117t5 123t5 149t4 191t3 253q0 34 -7 83q-5 34 -5 65q0 13 1 26q3 42 23 68q15 20 50 20q11 0 24 -2q28 -4 49 -8t52 -28t81 -80t136 -166t218 -286t326 -438q38 52 51 144q11 80 11 173v29q-2 110 -11 223t-17 207t-9 156v6q0 56 17 62q27 4 48 4 q10 0 19 -1q27 -3 45 -16t29 -37t21 -58q20 -132 33 -265q9 -96 9 -192q0 -37 -1 -73q-5 -132 -31 -262t-86 -254q-42 -68 -97 -68t-117 46t-130 127t-135 175t-130 193t-118 179t-97 131t-68 53q2 -96 6 -214q3 -79 3 -160q0 -40 -1 -81q-2 -123 -12 -241t-36 -214 q-16 -22 -42 -34t-51 -12t-48 14t-33 42z" />
<glyph unicode="O" horiz-adv-x="1052" d="M30 612q2 142 42 271t114 229t170 141q52 22 109 22q48 0 100 -16q113 -35 233 -177q86 -82 141 -200t74 -244q9 -61 10 -122q0 -64 -11 -126q-20 -122 -83 -212t-172 -135q-69 -29 -158 -29q-51 0 -109 10q-166 22 -267 111t-148 212q-45 118 -45 253v12zM218 610v-13 q0 -81 22 -155q24 -80 76 -146t140 -106q69 -25 125 -25q25 0 46 5q71 16 116 64t67 121t25 153q1 15 1 30q0 65 -11 128q-13 78 -37 138q-62 136 -140 205q-76 67 -150 67h-4q-76 -2 -144 -75t-108 -219q-22 -84 -24 -172z" />
<glyph unicode="P" horiz-adv-x="1128" d="M55 1117q-4 14 -4 26q0 19 10 35q17 26 56 46t86 33t95 20t86 9q-32 0 6 2q11 1 25 1q35 0 88 -4q75 -5 172 -20t185 -48t151 -88t69 -139q-14 -126 -84 -234t-175 -183t-235 -113q-91 -27 -186 -27q-40 0 -80 5q-6 -34 -9 -81t-3 -99t1 -102t1 -88q-14 -38 -39 -61 t-54 -27q-5 -1 -10 -1q-23 0 -46 15q-27 18 -43 60q-4 216 -6 366t-2 261t2 194t6 165q-52 42 -63 77zM292 736q2 -62 8 -112q50 -15 106 -15q41 0 85 8q105 19 197 70t151 127q54 69 54 150q0 8 -1 16q-2 32 -47 60t-111 49t-142 34t-142 13t-109 -14t-41 -44 q-2 -40 -4 -97t-4 -120q-1 -32 -1 -63t1 -62z" />
<glyph unicode="Q" horiz-adv-x="1064" d="M68 587q-1 28 -1 55q0 89 10 172q13 108 41 197t66 137q92 94 187 121q50 14 99 14q44 0 87 -11q91 -24 172 -89t145 -156t105 -199t52 -218q3 -34 3 -66q0 -75 -17 -146q-25 -102 -93 -182q-12 -22 -3 -41t25 -36t32 -33t22 -33t-7 -38t-57 -47q-30 -19 -52 -19 q-8 0 -15 3q-25 10 -41 33t-31 46t-37 23q-148 -76 -261 -82q-13 -1 -26 -1q-96 0 -167 41q-80 46 -131 133t-77 195t-30 227zM242 618q-1 -20 -1 -40q0 -70 11 -135q14 -83 46 -148t86 -100q51 -33 123 -33h8q77 2 181 54l-228 402q-18 30 -2 47t45 26t59 11t40 2 q12 -8 20 -23t28 -51t58 -101t110 -173q46 30 54 97q2 20 2 41q0 50 -13 108q-19 82 -59 172t-89 166t-102 130t-97 68q-12 3 -20 3q-16 0 -19 -12q-5 -19 -4 -43t-2 -44t-31 -14q-8 2 -19 11t-22 20t-18 23t-7 22q-40 -56 -70 -135t-47 -169t-21 -182z" />
<glyph unicode="R" horiz-adv-x="906" d="M44 1160q-1 6 -1 11q0 25 16 46q19 25 48 36q20 8 40 8q9 0 19 -2q30 -5 46 -31q8 -10 9 -28l2 -36t5 -33t18 -19q47 3 91 2q156 0 268 -33q143 -43 186 -136q17 -36 17 -79q0 -68 -42 -154q-68 -140 -274 -322l360 -12q40 0 52 -30q6 -15 6 -31.5t-6 -34.5 q-12 -36 -45 -65q-29 -25 -70 -25h-11q-66 2 -116 13t-97 21t-98 18q-34 5 -75 5q-20 0 -42 -1v-164q-2 -46 -30 -64q-23 -15 -50 -15q-6 0 -12 1q-34 4 -64 27t-34 63q-2 18 -8 78t-19 184t-35 319t-54 483zM243 834v-16q0 -39 4 -82q5 -52 15 -102t27 -84t43 -46 q8 -4 17 -4q20 0 43 18q146 114 194 195q38 64 38 110q0 13 -3 24q-13 53 -70 80t-121 32q-17 1 -33 1q-45 0 -86 -10q-55 -14 -63 -44q-4 -26 -5 -72z" />
<glyph unicode="S" horiz-adv-x="796" d="M42 1060q10 76 64 118t140 55q53 8 108 8q34 0 69 -3q91 -8 175 -31t138 -53q20 -26 31 -58q9 -27 9 -51v-8q-2 -27 -21 -43t-59 -10q-60 16 -124 41t-124 38q-34 7 -65 7q-24 0 -47 -4q-52 -10 -88 -64q-3 -10 -2 -21q0 -29 19 -61q27 -44 72 -93t104 -101t114 -104 t99 -103t64 -97q45 -98 45 -176q0 -73 -35 -124q-36 -52 -107 -79q-66 -25 -159 -25h-14q-40 0 -110 20t-136 54t-113 78q-43 41 -43 84v8q4 44 33 53q13 4 29 4q20 0 45 -6q45 -11 100 -36t108 -48t100 -39q36 -12 62 -12q8 0 16 1q31 5 39 40q2 8 2 19q0 35 -20 94 q-26 84 -83 152t-126 130t-139 123t-122 129q-49 101 -49 171q0 12 1 23z" />
<glyph unicode="T" horiz-adv-x="830" d="M49 1115q-7 14 -7 33q0 21 8 48q58 10 136 22t165 21t178 15t172 6t149 -9t110 -29q6 -15 6 -28q0 -14 -7 -24q-13 -20 -44 -34t-73 -21t-86 -11t-85 -8t-67 -10l-18 -1004q2 -32 -26 -55t-60 -26h-8q-27 0 -49 18q-20 17 -20 55q0 9 1 20l6 980q-9 1 -18 1q-24 0 -56 -4 q-44 -5 -91 -8t-92 -3t-77 13t-47 42z" />
<glyph unicode="U" horiz-adv-x="1010" d="M18 856q-2 37 -2 75q0 120 24 243q-1 7 -1 13q0 38 21 61q24 26 59 32q10 2 21 2q25 0 53 -10q39 -14 63 -44v-10q-36 -88 -42 -196q-2 -27 -1 -54q0 -81 13 -164q18 -110 54 -212t83 -179t101 -119q43 -33 86 -34l22 3q54 11 103 83t87 224q12 78 14 166q1 25 1 50 q0 62 -4 124q-5 86 -15 161t-24 123q-1 8 -1 14q0 33 24 49q29 19 68 19t76 -16t49 -46q4 -10 7 -52t3 -104t-1 -137t-4 -149t-8 -142t-11 -114q-50 -196 -122 -306t-154 -151q-53 -27 -109 -27q-30 0 -60 8q-87 22 -167 92t-146 181t-108 249t-52 294z" />
<glyph unicode="V" horiz-adv-x="868" d="M34 1252q9 29 31 29h4q25 -3 51 -20t47 -38t21 -27l282 -862q14 -16 27 47t36 188t60 302t101 387q18 18 40 23q8 2 16 2l28 -6q22 -9 40 -33t28 -62q-42 -70 -69 -187t-49 -251t-43 -268t-53 -240t-79 -167q-38 -50 -93 -50q-13 0 -26 3q-2 -1 -4 -1q-15 0 -41 45 q-29 52 -62 138t-69 193t-68 210t-55 189t-33 128q-50 142 -64 219q-8 45 -8 75q0 21 4 34z" />
<glyph unicode="W" horiz-adv-x="1390" d="M28 1122q-1 9 -1 16q0 33 20 54q25 26 57 32t61 -7t33 -49l82 -818q4 54 21 116t38 125t39 125t24 116q42 59 88 59h4q48 -3 93 -38t85 -87t68 -88q104 -152 163 -233t87 -117t35 -41l7 -5q14 28 29 93t28 150t26 184t23 195t19 180t17 142q8 20 31 32t49 15q7 1 14 1 q19 0 36 -6q24 -8 36 -32q1 -9 1 -20q0 -29 -4 -77q-5 -67 -14 -158t-22 -198t-29 -214t-34 -206t-36 -177t-37 -126t-35 -50q-8 -6 -17 -6q-20 0 -50 26q-43 38 -98 108t-116 159t-121 174t-115 152t-95 95q-16 -82 -32 -150t-34 -135t-37 -136t-39 -151q-10 -34 -24 -62 t-35 -42t-51 -12t-68 26q-4 2 -7 10t-10 41t-18 98t-29 183t-44 297t-62 437z" />
<glyph unicode="X" horiz-adv-x="998" d="M38 1246q-1 6 -1 11q0 23 29 23q42 0 76 -11t59 -27t43 -32t28 -28q30 -34 60 -84t62 -101t66 -98t72 -75q6 12 23 43t38 71t45 85t45 85t38 71t25 43q16 28 48 41q24 10 49 10l15 -1q32 -4 56 -24t26 -58q-92 -136 -157 -269t-131 -269q10 -54 47 -121t82 -136t89 -135 t68 -120q18 -40 18 -71q0 -10 -2 -20q-8 -37 -64 -49q-12 -16 -26 -16q-13 0 -28 12q-32 26 -68 80t-73 124t-68 131t-54 98t-31 27l-204 -358q-18 -32 -55 -43q-21 -6 -43 -6q-15 0 -30 3q-36 8 -58 33q-14 16 -14 39q0 13 4 28q4 16 30 57t61 94t73 111t68 111t45 93t5 56 q-114 162 -198 277t-132 188t-56 107z" />
<glyph unicode="Y" horiz-adv-x="1096" d="M89 1249q11 25 42 34q20 6 43 6q12 0 26 -2q38 -5 60 -25q66 -56 109 -110t81 -108t81 -109t109 -113q14 16 35 68t47 118t58 132t69 108t78 48q4 1 8 1q37 0 79 -51q0 -22 -19 -69t-47 -108t-61 -131t-63 -138t-51 -131t-25 -109q-2 -8 -3 -47t-3 -93t-4 -116t-5 -117 t-7 -98t-8 -57q-52 -21 -86 -21q-22 0 -36 9q-36 22 -45 79q-5 29 -5 63t5 74q9 80 17 162q5 55 5 105q0 26 -1 50q-4 73 -40 115l-422 518q-24 28 -24 49q0 8 3 14z" />
<glyph unicode="Z" horiz-adv-x="1150" d="M42 965q-5 8 -5 17q0 18 20 37q29 29 94 61t158 64t210 61t247 53q30 7 57 7q29 0 56 -8q51 -15 80 -49q28 -33 28 -83q0 -54 -41 -115l-514 -806q0 -2 -9 -21t-13 -29v-10q40 -4 79 -4q43 0 83 5q76 9 151 21t152 23q56 8 119 8q23 0 46 -1q44 -14 67 -62q14 -30 14 -59 q0 -18 -5 -35q-16 2 -38 2q-27 0 -63 -3q-65 -5 -147 -15t-173 -20t-178 -15q-54 -3 -104 -3q-30 0 -58 1q-75 3 -125 21t-67 53q-6 13 -6 30q0 27 17 63q78 126 129 204t84 126t53 75t38 49t37 49t51 75t80 126t122 204q-94 -8 -185 -33t-174 -51t-156 -44q-51 -12 -95 -12 q-20 0 -38 2q-64 16 -78 41z" />
<glyph unicode="[" horiz-adv-x="854" d="M99 552q3 152 16 300t37 266t58 194t82 84q154 -18 258 -15t169 5t96 -8t41 -54q10 -74 -22 -98t-98 -24t-162 10t-214 6q-14 -14 -21 -98t-9 -206t-3 -267t-4 -284t-9 -257t-18 -184q32 -10 91 -11t123 0t125 2t99 -3q58 -56 48 -88t-63 -49t-133 -20t-161 0t-149 9 t-94 10q-22 -8 -39 56t-28 174t-15 254t-1 296z" />
<glyph unicode="\" horiz-adv-x="712" d="M29 1196q3 28 23 45t53 21t67 -8l514 -1120q6 -10 3 -29t-20 -36t-49 -29t-82 -8l-484 1102q-28 34 -25 62z" />
<glyph unicode="]" horiz-adv-x="744" d="M-48 1356q8 44 39 54t96 8t170 -5t259 17q48 -8 82 -84t58 -194t36 -266t16 -301t0 -297t-15 -254t-29 -174t-40 -56q-26 -4 -94 -10t-148 -9t-160 1t-133 21t-63 49t48 88q38 4 98 3t125 -2t123 0t90 9q-12 66 -18 184t-8 257t-3 285t-3 268t-9 205t-21 99 q-118 4 -215 -7t-163 -11t-97 24t-21 98z" />
<glyph unicode="^" horiz-adv-x="490" d="M36 752l74 182q22 40 54 62t68 25t72 -13t64 -54l114 -184q10 -34 2 -58t-27 -36t-45 -8t-52 28q-16 18 -26 32t-19 30t-21 39t-32 61q-16 -46 -24 -65t-12 -28t-8 -17t-12 -32q-24 -48 -58 -61t-63 -2t-45 39t-4 60z" />
<glyph unicode="_" horiz-adv-x="1142" d="M34 44q2 16 12 34t23 33t19 19q62 12 158 21t204 13t218 4t203 -4t158 -13t83 -23q26 -22 31 -39t-1 -32t-18 -27t-20 -24q-76 2 -176 -1t-208 -8t-216 -8t-201 -2t-162 9t-97 26q-12 6 -10 22z" />
<glyph unicode="`" horiz-adv-x="254" d="M16 1198q38 48 62 49t45 -27t45 -77t64 -105q-24 -62 -59 -60t-69 37t-60 88t-28 95z" />
<glyph unicode="a" horiz-adv-x="810" d="M46 636q136 196 249 271q97 65 176 65q13 0 25 -2q88 -12 150 -94t95 -200t35 -255v-17q0 -128 -28 -242q44 -74 44 -115q0 -6 -1 -11q-7 -42 -43 -45h-6q-34 0 -81 29q-51 32 -87 96q-24 -14 -74 -37t-110 -44t-122 -33q-39 -8 -73 -8q-20 0 -38 3q-49 7 -75 40 q-19 24 -19 67q0 17 3 36q20 84 73 130t123 64q55 14 114 14q16 0 33 -1q77 -5 145 -23q20 70 23 148q1 14 1 27q0 62 -12 115q-14 64 -45 107t-78 44h-2q-46 0 -109 -49q-64 -50 -144 -168q-26 -16 -54 -19t-50 8t-34 35q-7 14 -7 35q0 13 3 29zM236 138q5 -8 24 -9 q4 0 8 1q26 2 58 10t59 20t33 24q0 18 -30 23q-14 2 -28 2q-17 0 -36 -3q-34 -6 -63 -23q-25 -15 -26 -38q1 -4 1 -7z" />
<glyph unicode="b" horiz-adv-x="966" d="M64 1268q0 8 22 14t50 8q8 1 16 1q20 0 38 -4q26 -5 36 -19q12 -72 23 -174t22 -211l22 -218t25 -197q34 56 81 104t102 82t118 50q42 11 84 11q21 0 43 -3q112 -32 155 -96q34 -51 34 -108q0 -14 -2 -29q-11 -73 -64 -146t-133 -124t-177 -69q-32 -6 -64 -6 q-64 0 -127 24q-8 10 -13 -20t-22 -61t-51 -43q-7 -3 -16 -3q-32 0 -82 35q-8 54 -15 137t-19 219t-32 341t-54 505zM430 298q150 0 228 46t98 99q8 22 8 41q0 28 -17 50q-20 26 -55 26q-17 0 -38 -6q-16 -6 -51 -21t-71 -45t-66 -76t-36 -114z" />
<glyph unicode="c" horiz-adv-x="912" d="M51 413q3 63 15 119q38 176 91 274t110 136q46 31 92 31l22 -2q57 -9 105 -45t82 -89t44 -102q4 -18 4 -34q0 -28 -11 -50q-16 -33 -67 -33h-6q-28 14 -52 52t-47 73t-44 52t-41 -13q-92 -132 -125 -245q-24 -83 -24 -149q0 -24 3 -45q12 -81 64 -125q46 -39 115 -39 q9 0 19 1q82 6 187 68t223 192q26 24 58 35t57 10t38 -14q7 -7 7 -18q0 -8 -4 -19q0 -44 -48 -105t-122 -123t-167 -115t-183 -80q-69 -21 -134 -21q-19 0 -37 2q-81 8 -131 68q-38 48 -59 107t-29 121q-6 45 -6 91q0 17 1 34z" />
<glyph unicode="d" horiz-adv-x="804" d="M48 212q-4 25 -4 49q0 40 12 78q20 61 77 97q53 33 140 33h15q98 -3 240 -65q5 60 5 118q0 29 -1 57q-4 85 -16 183t-30 219t-40 283q4 10 31 17t60 8h8q29 0 57 -6q32 -7 44 -23q6 -150 20 -306t29 -302t26 -272q10 -116 10 -201v-15q-1 -90 -19 -135q-13 -33 -40 -33 q-9 0 -20 4q-42 10 -60 37t-50 61q-100 -82 -185 -99q-34 -7 -64 -7q-47 0 -86 16q-65 26 -106 82t-53 122zM210 174q20 -16 57 -17h8q33 0 70 7q41 8 75 24t48 38q-50 62 -93 85q-41 22 -74 22h-3q-34 -1 -58 -22t-36 -48q-11 -25 -11 -48q0 -28 17 -41z" />
<glyph unicode="e" horiz-adv-x="768" d="M24 596q34 128 85 210t109 122t120 42h7q58 0 112 -29q57 -31 104 -92t77 -147q3 -14 3 -26q0 -28 -16 -46q-23 -26 -64 -39t-95 -18t-108 -7t-101 -7t-73 -19q-13 -40 -14 -82q0 -21 4 -43q10 -65 41 -120t81 -94t111 -48q15 -2 31 -2q47 0 100 20q70 27 140 103 q24 0 43 -9t29 -24t10 -34t-16 -39q-68 -104 -155 -146q-75 -36 -150 -36q-13 0 -25 1q-88 7 -168 59t-137 134t-83 189q-14 56 -14 115q0 54 12 112zM188 690q18 2 53 5t77 6t82 7t66 10q-18 36 -60 52q-35 13 -74 13h-14q-46 -3 -84 -26t-46 -67z" />
<glyph unicode="f" horiz-adv-x="888" d="M-76 294q-10 19 -10 36q0 23 20 42q34 32 87 53t108 32t73 17q-17 125 -17 229q0 95 14 173q29 164 94 263t153 134q56 22 112 22q33 0 65 -7q89 -20 164 -92t115 -188q6 4 6 3t-8 -8q-14 -13 -39 -28t-54 -22t-49 15q-72 90 -133 121q-40 20 -76 20q-18 0 -35 -5 q-50 -16 -85 -73t-55 -139t-21 -184v-11q0 -97 17 -199q74 3 152 3h39q99 -1 189 -33q32 -41 32 -68q0 -5 -1 -10q-7 -30 -41 -49t-86 -27t-102 -10q-33 -1 -62 -1h-28q-40 1 -50 1q8 -32 19 -89q8 -42 8 -81q0 -15 -1 -29q-4 -53 -33 -86q-20 -23 -62 -23q-18 0 -39 4 q-18 18 -34 64t-28 96t-22 90t-18 46q-42 -2 -79 -27t-70 -40q-22 -10 -43 -10q-11 0 -22 3q-32 8 -64 72z" />
<glyph unicode="g" horiz-adv-x="926" d="M48 370q-12 65 -12 124q0 76 20 142q36 118 108 193t167 100q38 10 75 10q57 0 112 -23q92 -38 168 -147t110 -301q18 -92 42 -180t43 -170t30 -157q7 -46 7 -88q0 -27 -3 -53q-7 -66 -37 -124t-92 -106q-26 -14 -50 -29t-47 -22q-13 -4 -25 -4q-9 0 -17 2q-19 5 -35 31 q-32 32 -37 57t7 43t34 33t44 29t40 30t22 36q13 58 13 116q0 43 -7 86q-16 102 -38 198q-46 -80 -109 -131t-130 -71q-42 -12 -84 -12l-50 4q-67 12 -123 58t-95 127t-51 199zM214 492q-4 -20 -4 -44q0 -32 7 -70q13 -68 44 -124t80 -82q21 -11 44 -11q32 0 69 21 q76 62 111 134t39 141q1 11 1 21q0 58 -19 110q-22 62 -58 104t-82 60q-22 9 -43 9q-24 0 -48 -11q-45 -20 -83 -81t-58 -177z" />
<glyph unicode="h" horiz-adv-x="936" d="M16 1104q-2 13 -2 25q0 43 23 74q29 39 68 52q20 6 38.5 6.5t35.5 -6.5q35 -13 39 -55v-648q142 168 267 223q69 30 128 30q48 0 90 -20q93 -45 144 -183q44 -119 44 -298q0 -28 -1 -58q0 -72 -27 -112t-62 -55q-22 -9 -42 -9q-12 0 -24 3q-31 9 -37 35q-8 40 -11 96 t-5 115t-7 117t-18 104t-36 75t-61 29q-94 -26 -149 -97t-85 -159t-41 -182t-17 -166q-10 -14 -32 -24t-46 -17t-47 -10q-14 -2 -24 -2q-7 0 -13 1q-28 20 -43 44t-21 67t-7 116t-1 190t-4 288t-14 411z" />
<glyph unicode="i" horiz-adv-x="390" d="M56 780q2 6 9 26t25 38t51 25q9 2 19 2q29 0 70 -15l138 -790q-4 -12 -28 -25t-54 -20q-21 -5 -42 -5l-18 1q-30 3 -42 27q-28 60 -48 158t-35 205t-26 208t-19 165z" />
<glyph unicode="j" horiz-adv-x="528" d="M7 -350q0 22 15 48q30 10 65 22t67 29t58 42t38 61q3 21 3 48q0 108 -45 314q-56 258 -180 650q-5 15 -5 27q0 22 15 38q24 25 61 31q11 2 21 2q27 0 54 -11q38 -15 50 -55l210 -850q19 -63 19 -122q0 -27 -4 -54q-13 -84 -59 -148t-119 -103t-163 -39q-10 -1 -20 -1 q-16 0 -31 4q-23 7 -36 24q-14 18 -14 43z" />
<glyph unicode="k" horiz-adv-x="834" d="M36 1220q14 40 45 53q24 10 48 10q7 0 15 -1q32 -4 59 -22t31 -38q0 -20 -1 -62t-3 -98t-3 -117t-1 -118t1 -103t3 -68q8 -4 44 31t78 81t79 87t49 51q24 22 59 26q9 1 18 1q25 0 47 -8q30 -11 44 -35t-4 -58q-14 -24 -43 -54t-65 -63t-75 -69t-70 -71t-51 -69t-20 -64 q48 -18 103 -24t110 -7t106 -2t91 -7t63 -20t25 -44q-2 -50 -59 -71t-141 -22h-14q-78 0 -166 10q-96 11 -176 23q-16 0 -17 -18t2 -46t6 -62q1 -13 1 -25q0 -20 -3 -39q-5 -30 -23 -52t-56 -26q-30 -5 -53 -5q-24 0 -38 6q-27 11 -33 38q-3 15 -3 33q0 15 2 34q5 40 5 88z " />
<glyph unicode="l" horiz-adv-x="282" d="M38 1174q-1 6 -1 11q0 30 19 51q22 24 54 35q23 8 47 8l17 -1q32 -4 50 -24q-7 -78 -7 -181v-26q1 -119 7 -247t15 -255t15 -232t7 -178v-16q0 -60 -7 -77q-4 -14 -27 -24t-49 -13q-9 -1 -17 -1q-16 0 -31 4q-22 6 -24 26z" />
<glyph unicode="m" horiz-adv-x="1510" d="M24 880q-2 7 -2 14q0 20 19 32q25 16 60 18h10q30 0 58 -10q33 -12 41 -38l52 -172q80 118 168 160q55 26 106 26q30 0 60 -9q78 -25 137 -115t83 -236q20 76 75 151t125 132t148 89q57 23 108 24q19 0 37 -4q67 -12 112 -76t53 -198l-10 -590q0 -42 -21 -57 q-19 -13 -43 -13h-7q-29 2 -60 14t-51 24q18 190 19 336v17q0 134 -15 218q-16 89 -49 117q-13 11 -28 11q-24 0 -55 -28q-50 -45 -118 -171t-154 -342q-55 -29 -87 -29q-12 0 -21 4q-32 15 -50 74t-34 158t-58 227q-22 56 -52 74q-21 12 -42 12q-10 0 -20 -2 q-32 -8 -64 -34t-58 -59t-45 -66t-23 -51q-8 -28 -8 -83v-23q2 -72 3 -149v-22q0 -65 -5 -123q-6 -68 -32 -92q-37 -15 -62 -15q-18 0 -30 7q-30 18 -41 71t-13 135t-11 186t-31 225t-74 251z" />
<glyph unicode="n" horiz-adv-x="1018" d="M10 700q-3 15 -3 29q0 23 8 42q13 31 71 39q9 1 18 1q42 0 62 -25q24 -30 33 -73t10 -86t11 -63q74 206 185 303q94 82 188 82q18 0 35 -3q112 -18 206 -156t134 -400l22 -176q5 -42 5 -76q0 -31 -4 -55q-9 -51 -43 -67q-11 -5 -27 -5q-32 0 -83 21q-6 36 -18 110 t-26 158l-27 162t-21 122q-42 106 -85 149q-39 39 -77 39l-9 -1q-43 -5 -83 -48t-75 -110t-64 -147t-49 -158t-29 -146q-6 -47 -6 -81q0 -15 1 -27q-18 -24 -42 -37q-21 -11 -42 -11h-6q-24 2 -45 18t-31 50q0 48 -2 112t-7 130t-13 127t-18 103q-8 30 -27 72t-27 82z" />
<glyph unicode="o" horiz-adv-x="718" d="M22 504q2 100 23 188t57 153t82 91q61 23 115 24q26 0 50 -6q75 -16 134 -68t102 -131t68 -169t34 -184q4 -45 4 -86q0 -46 -5 -90q-16 -66 -65 -116t-115 -79t-138 -35q-17 -1 -33 -1q-53 0 -99 15q-78 46 -126 125t-69 174q-19 87 -19 178v17zM212 423q2 -57 12 -113 t33 -96t61 -58q17 -8 38 -8q26 0 58 12q64 24 93 76t32 117v18q0 57 -16 118q-19 71 -50 130t-70 100t-75 46q-4 1 -9 1q-31 0 -57 -32q-30 -36 -44 -132q-4 -26 -6 -74q-1 -24 -1 -50.5t1 -54.5z" />
<glyph unicode="p" horiz-adv-x="906" d="M36 660q-6 28 -6 54q0 54 27 94q39 58 107 88t149 33h19q70 0 128 -19q62 -18 129 -59t125 -97t100 -124t54 -141q4 -24 4 -47q0 -50 -17 -99q-25 -73 -101 -139q-156 -90 -270 -119q-44 -11 -87 -11q-67 0 -131 28q-3 -15 -3 -39q0 -19 2 -44q5 -55 11 -113t11 -108 q3 -28 3 -46q0 -15 -2 -24q-24 -6 -46 -16t-40 -14q-7 -2 -14 -2q-10 0 -18 4q-14 6 -24 28q-14 30 -24 91t-18 141t-16 172t-15 186t-16 182t-21 160zM215 499v-5q0 -102 38 -166q39 -66 125 -77q11 -1 23 -1q82 0 211 64q72 78 76 149v13q0 64 -34 116q-38 58 -103 100 t-130 61q-47 14 -88 14q-14 0 -28 -2q-51 -7 -61 -47q-28 -114 -29 -219z" />
<glyph unicode="q" horiz-adv-x="746" d="M37 344q5 104 58 220t165 226q64 34 126 34h7q65 -2 125 -29t113 -72t97 -93q-26 -206 -29 -360q-1 -58 -1 -109q0 -86 3 -155q5 -110 10 -179q2 -23 2 -43q0 -39 -7 -64q-10 -38 -42 -48q-16 -5 -41 -5t-59 5q-16 14 -20 50q-3 24 -3 52q0 13 1 28q2 44 6 92t6 89 q1 12 1 22q0 27 -4 47q-5 28 -19 32q-106 -76 -198 -84q-15 -1 -29 -1q-74 0 -131 35q-68 42 -105 124q-33 72 -33 162q0 12 1 24zM220 300q10 -78 62 -140q28 -11 53 -11q24 0 46 10q45 21 79 66t56 106t33 116q9 47 9 84v13q-2 42 -16 50q-48 48 -99 53q-9 1 -17 1 q-41 0 -78 -21q-44 -25 -76 -72t-44 -101q-12 -49 -12 -99q0 -27 4 -55z" />
<glyph unicode="r" horiz-adv-x="706" d="M6 840q44 26 74 26q6 0 12 -1q32 -7 51 -39t28 -79t19 -95q76 122 156 175q77 51 141 51h5q66 -2 109 -49t45 -123q2 -14 -23 -7t-63 15q-30 6 -66 6h-18q-46 -2 -84 -34q-40 -34 -63 -88t-35 -114t-16 -120t-6 -106v-18q0 -28 4 -57t5 -56q0 -9 -1 -17q-2 -34 -17 -59 t-59 -33q-18 -4 -38 -7q-8 -1 -14 -1q-12 0 -22 3q-16 5 -28 17t-16 38q7 83 7 156q0 61 -5 114q-10 118 -28 210t-35 163t-19 129z" />
<glyph unicode="s" horiz-adv-x="726" d="M32 265q0 24 25 34q11 4 29 4q26 0 66 -9q18 -14 53 -49t76 -64t82 -41q11 -3 21 -4q28 0 50 26q2 17 2 34q0 51 -23 98q-31 62 -77 120t-95 113t-76 113q-21 46 -21 94q0 12 1 25q7 61 73 131q68 60 143 68q19 2 38 2q54 0 104 -17q67 -23 116 -66t62 -84q4 -12 4 -24 q0 -26 -21 -45q-23 -22 -84 -22q-17 0 -38 2q-12 6 -33 33t-49 49t-61 28q-5 1 -9 1q-28 0 -58 -31q-12 -20 -12 -44q0 -15 4 -31q12 -43 42 -91t72 -100t81 -103t70 -99t41 -88q2 -21 2 -40q0 -61 -24 -101q-32 -53 -88 -76q-48 -20 -107 -20q-10 0 -21 1q-72 4 -142 30 q-28 8 -65 36t-70 64t-57 74q-26 42 -26 69z" />
<glyph unicode="t" horiz-adv-x="696" d="M-52 561q18 29 63 38q34 7 74 7q13 0 27 -1q56 -3 96 -5q10 -2 17 5t10 16t4 19t1 14q4 64 6 115t3 99q0 24 0.5 48.5t-0.5 49.5q-1 50 -3 114q4 28 29 38q17 7 36 7q9 0 19 -2q30 -5 57 -19t35 -34q20 -50 22 -104q1 -15 1 -31q0 -39 -4 -79q-5 -56 -12 -113 q-5 -44 -5 -87v-24q8 0 30 -1t46 -3t46 -4t30 -2q20 -2 51 -8t57 -19t41 -35q8 -12 8 -28q0 -13 -5 -28q-14 -40 -53 -45q-20 -2 -41 -2.5t-44 2.5q-46 5 -89 8h-10q-36 0 -57 -19q-4 -4 -2 -35t5 -77t8 -99t10 -100t7 -80t2 -39q-42 -27 -88 -27q-9 0 -18 1q-56 6 -78 68 l-30 356q-2 14 -37 9t-81 -8q-13 -1 -25 -1q-34 0 -68 6q-47 8 -71 48q-26 42 -26 69q0 13 6 22z" />
<glyph unicode="u" horiz-adv-x="846" d="M36 615q-1 19 -1 36q0 31 4 61q7 46 32 77q21 26 64 26q8 0 17 -1q34 -2 46 -36t17 -90t9 -125t23 -140t60 -138t119 -115q15 -2 28 -2q46 0 76 22q38 28 55 80t17 122t-9 148t-24 157t-27 149q10 30 35 38q17 5 35 5q9 0 19 -1q29 -4 56 -16t41 -26q14 -86 30 -164 t24 -156q5 -45 5 -89q0 -33 -3 -67q-6 -78 -36 -164q-24 -66 -66 -112t-96 -70t-118 -28q-12 -1 -23 -1q-53 0 -107 15q-64 22 -114 83t-87 137t-60 157t-33 145q-4 32 -8 83z" />
<glyph unicode="v" horiz-adv-x="824" d="M31 801q17 23 50 29q12 2 25 2q21 0 44 -6q36 -10 56 -34q50 -104 103 -201t103 -201q20 26 45 100t52 162t54 172t55 130q46 18 80 18q8 0 15 -1q39 -5 57 -29q13 -17 13 -42q0 -10 -2 -21q-7 -39 -43 -87q-22 -60 -46 -128t-48 -140t-43 -144t-27 -140q-3 -27 -3 -49.5 t3 -40.5q6 -36 3 -61t-25 -43t-84 -36q-20 -6 -34 -8q-4 -1 -8 -1q-9 0 -16 4q-10 5 -20 16t-22 33l-336 684q-9 21 -9 37q0 15 8 26z" />
<glyph unicode="w" horiz-adv-x="1262" d="M17 831q-1 11 -1 21q0 36 14 64q18 36 76 38h7l49 -11q28 -13 34 -41q6 -18 18 -74t26 -120t26 -119t18 -71q50 110 108 137q30 14 60 14q29 0 60 -13q62 -26 126 -91t122 -137t110 -138t92 -94q20 24 28 76t16 134t22 193t44 253q8 28 35 40t56 12t52 -10t25 -26 q-4 -20 -11 -88t-17 -159t-23 -194t-28 -192t-33 -153t-38 -76q-19 -4 -37 -4q-41 0 -82 21q-59 31 -114 84t-108 118t-101 123t-94 96t-86 38q-22 -48 -34 -101t-19 -107t-10 -107t-9 -101q-48 -46 -89 -46t-89 30l-156 600q-8 30 -24 81t-21 100z" />
<glyph unicode="x" horiz-adv-x="804" d="M43 44q-5 11 -5 27q0 17 6 39q18 30 51 64t66 74t59 84t30 92l-206 292q0 6 1 20t13 29t39 27t77 12q16 -4 44 -36t57 -71t52 -75t31 -48q12 -16 26 -5t31 38t38 61t47 62t58 45q20 11 43 11q14 0 29 -4q20 -6 32 -19t18 -30t4 -36t-10 -35q-10 -14 -33 -50t-49 -75 l-50 -75t-32 -50q-6 -19 -6 -37q0 -19 7 -36q13 -33 38 -62t58 -56t64 -55t52 -58t25 -64q-26 -54 -61 -60q-8 -1 -16 -1q-28 0 -57 16q-38 21 -77 60t-73 77t-62 63t-44 19q-14 -14 -38 -43t-50 -60t-51 -58t-43 -37q-20 -12 -48 -15t-51 6t-34 33z" />
<glyph unicode="y" horiz-adv-x="906" d="M54 770q12 28 38 43t55 15t55 -14t38 -44q6 -76 11 -149t18 -142t42 -134t83 -125q30 -34 70 -35h4q38 0 72 17q36 18 61 50t29 64q3 29 3 58.5t-3 58.5q-6 59 -9 117q-1 25 -1 50q0 33 2 66q4 58 30 116q10 22 34 35t53 17q11 1 21 1q17 0 34 -4q26 -7 42 -27 q-26 -103 -26 -211q0 -23 1 -47q7 -132 31 -264t50 -261t31 -252q1 -18 1 -36q0 -104 -25 -201q-29 -114 -117 -214q-42 -34 -97 -38q-12 -1 -23 -1q-41 0 -75 12q-43 15 -63 46q-8 13 -8 27q0 19 16 40q18 10 46 13t56 16t51 47t33 106q5 38 5 89q0 45 -4 101 q-9 118 -45 300q-107 -61 -197 -61h-8q-93 3 -165 52t-123 132t-83 181t-43 201q-6 54 -6 103q0 45 5 86z" />
<glyph unicode="z" horiz-adv-x="840" d="M24 725q-3 6 -3 13q0 32 57 94q19 -2 42 -1q34 0 74 3q68 6 142 14t144 12q20 1 39 1q47 0 84 -7q53 -10 80 -40q18 -20 18 -52q0 -17 -5 -36q-36 -78 -80 -149t-90 -140t-90 -139t-78 -146q94 6 170 29t134 36q30 7 56 7q24 0 43 -6q41 -12 63 -78q-16 -26 -59 -48 t-102 -38t-128 -27t-134 -18t-123 -9q-29 -1 -52.5 -1t-41.5 1q-28 14 -49 43q-16 23 -16 49q0 8 1 16q14 22 48 76t72 115t72 115t46 76q8 12 33 48t52 75t48 71t21 34q-114 -10 -222 -22q-76 -8 -134 -8q-24 0 -45 1q-71 5 -87 36z" />
<glyph unicode="{" horiz-adv-x="858" d="M24 405q-10 29 34 57q20 14 46 22t52 17t48 22t38 37q6 128 -8 238t-23 201t0 160t62 115t163 66t304 14q36 -6 42 -24t-4 -39t-31 -40t-37 -27q-38 -12 -86 -15t-95 -10t-84 -25t-51 -60q-8 -56 -2 -114t18 -117t23 -118t15 -117q2 -42 -3 -110t-11 -146t-8 -159t8 -148 t36 -113t76 -52q40 -6 70 -1t58 12t59 12t73 -1q22 -4 20 -23t-16 -42t-32 -42t-26 -23q-74 -48 -157 -48t-169 16q-36 10 -70 39t-61 88t-43 157t-16 246q-34 -4 -82 8t-84 35t-46 52z" />
<glyph unicode="|" horiz-adv-x="290" d="M38 1174q-4 38 18 62t54 35t64 7t50 -24q-8 -88 -7 -207t7 -247t15 -255t15 -232t7 -178t-7 -93q-4 -14 -27 -24t-49 -13t-48 3t-24 26z" />
<glyph unicode="}" horiz-adv-x="738" d="M6 1261q0 15 3 30t11 23q126 72 218 79t152 -33t90 -115t31 -166t-25 -189t-76 -182q108 0 164 -12t76 -30t9 -41t-38 -44t-64 -40t-69 -29q74 -146 96 -258t5 -192t-65 -131t-114 -78t-143 -32t-149 7l-22 22q-24 34 -16 52t37 30t70 21t81 23t71 37t39 65q16 98 -2 165 t-47 121t-57 106t-34 118q-4 88 9 170t30 158t32 148t15 142q-16 34 -54 31t-85 -15t-94 -20t-81 16q0 2 -2 15t-2 28z" />
<glyph unicode="~" horiz-adv-x="802" d="M62 715q12 51 51 91t94 63t101 21q32 -4 56 -17t45 -31t41 -38t44 -36q20 -12 39 -12t34 9t23 27t4 40q-6 22 -18 36t-21 27t-9 26t16 33q94 20 139 -8t50 -76t-23 -104t-76 -94t-112 -45t-130 45q-26 14 -47 39t-59 39q-40 12 -64 -5t-40 -45t-28 -58t-28 -44 q-24 -4 -32 -3t-22 19q-40 50 -28 101z" />
<glyph unicode="&#xa1;" horiz-adv-x="256" d="M50 615q0 -81 2 -224t6 -375q40 -22 64 -27t64 27q0 36 1 110t2 165t2 190t2 185t0 148t-1 80q-6 24 -23 39t-38 16t-42 -12t-37 -43q2 -48 2 -67t-1 -39t-2 -56t-1 -117zM54 1190q4 -28 20 -48t40 -27t52 9q60 70 55 105t-38 45t-73 0t-50 -30q-10 -26 -6 -54z" />
<glyph unicode="&#xa2;" horiz-adv-x="912" d="M51 413q3 63 15 119q22 106 53 183t67 129t76 81t82 39l-8 210q-4 38 18 62t54 35t64 7t50 -24q-6 -58 -8 -137t-2 -173q68 -32 123 -88t82 -110t18 -94t-69 -38q-26 14 -66 46t-82 66l8 -260t8 -248q64 32 132 86t144 136q26 24 58 35t57 10t38 -14t3 -37q0 -38 -37 -90 t-97 -106t-136 -105t-156 -87q0 -90 -1 -150t-7 -76q-4 -14 -27 -24t-49 -13t-48 3t-24 26l-6 184q-72 -12 -133 2t-101 62q-38 48 -59 107t-29 121t-5 125zM200 359q8 -81 53 -128t119 -51l-22 602h-2q-86 -126 -121 -234t-27 -189z" />
<glyph unicode="&#xa3;" horiz-adv-x="1030" d="M40 540q-10 30 4 58t47 47t71 17q12 2 45 8t69 13t69 13t45 8q8 84 19 172t31 165t55 137t91 86t138 11t198 -85q30 -20 56 -61t31 -81t-17 -65t-86 -11q-84 72 -142 93t-97 7t-61 -55t-32 -93t-11 -106t1 -92q46 4 93 -2t87 -19t66 -32t30 -39t-19 -38t-83 -32 q-22 -4 -45 -4t-47 -1t-48 -4t-44 -13q-6 -48 -12 -88t-14 -79t-18 -78t-24 -87q16 -18 69 -22t110 -1t100 7t39 2q30 -8 37 -31t0 -50t-27 -51t-44 -32q-84 6 -173 4t-171 -3t-152 4t-114 25t-57 60t19 108q80 -40 131 -32t78 49t35 110t2 153q-34 2 -68 -2t-67 -10t-67 -9 t-68 1q-48 20 -58 50z" />
<glyph unicode="&#xa5;" horiz-adv-x="1096" d="M89 1249q11 25 42 34t69 4t60 -25q66 -56 109 -110t81 -108t81 -109t109 -113q14 16 35 68t47 118t58 132t69 108t78 48t87 -50q0 -32 -35 -110t-80 -174t-88 -194t-57 -172q70 -6 119 -28t41 -64q-8 -38 -54 -49t-118 -15q0 -18 -1 -40t-1 -44q80 -4 137 -23t51 -59 q-8 -52 -61 -68t-135 -16q-4 -56 -7 -99t-7 -59q-60 -24 -95 -20t-53 28t-22 65t0 93h-94q-30 10 -45 29t-17 41t11 42t39 30q14 2 47 6t75 8q4 22 5 43t3 43q-34 -2 -67 -4t-65 -6q-30 10 -45 29t-17 41t11 41t39 29q16 6 53 12t85 10q-8 44 -34 76l-422 518q-32 38 -21 63 z" />
<glyph unicode="&#xa8;" horiz-adv-x="632" d="M68 1091q0 37 24 61t64 29t76 -23q42 -34 40 -70t-28 -60t-64 -30t-68 20q-44 36 -44 73zM372 1097q0 37 24 61t63 29t75 -23q42 -34 40 -70t-27 -60t-63 -30t-68 20q-44 36 -44 73z" />
<glyph unicode="&#xad;" horiz-adv-x="844" d="M128 465q-14 37 3 68t60 51t97 12l384 -8q40 4 76 -11t53 -41t9 -58t-56 -62l-552 -12q-60 24 -74 61z" />
<glyph unicode="&#xaf;" horiz-adv-x="768" d="M38 1087q-14 37 4 68t60 51t96 12l384 -8q40 4 76 -11t54 -41t10 -58t-56 -62l-554 -12q-60 24 -74 61z" />
<glyph unicode="&#xb4;" horiz-adv-x="254" d="M16 1038q40 56 64 105t45 77t45 27t62 -49q-4 -42 -29 -95t-59 -88t-69 -37t-59 60z" />
<glyph unicode="&#xb8;" horiz-adv-x="532" d="M102 -257q14 23 78 21q14 -10 34 -27t42 -29t47 -13t49 23q20 42 6 58t-45 23t-72 14t-75 28t-53 64t-7 125q62 32 91 19t39 -40t8 -52t0 -15q0 -22 38 -31t84 -23t87 -38t51 -74q16 -58 -3 -100t-61 -66t-99 -29t-117 9q-34 12 -69 41t-51 59t-2 53z" />
<glyph unicode="&#xbf;" horiz-adv-x="704" d="M64 274q10 58 47 118t83 116t93 106t77 90q16 24 17 53t-1 57t-3 52t13 42t49 25t101 -1q4 -64 0 -127t-32 -123q-6 -14 -42 -53t-81 -89t-87 -106t-61 -107t-5 -89t82 -54q52 -12 98 14t85 57t72 49t59 -8t20 -57t-28 -60t-51 -53t-47 -36q-72 -48 -159 -66t-159 1 t-114 79t-26 170zM326 1168q2 36 28 60t64 31t68 -19q44 -36 44 -73t-24 -62t-64 -30t-76 23q-42 34 -40 70z" />
<glyph unicode="&#xc0;" d="M67 450q5 16 20 27t34 17t33 10q12 -2 14 2t-1 26t-10 68t-16 130t-18 213t-15 315q62 14 94 4t44 -40t11 -77t-3 -109t3 -135t27 -155q-8 178 24 299t89 183t130 63t148 -60t145 -187t120 -318q48 -186 86 -303t63 -191t37 -116t6 -76q-60 -36 -101 -6t-70 89t-47 126 t-32 103q-16 8 -56 13t-100 7t-137 3t-165 1q-6 -30 -9 -67t-3 -75t1 -74t1 -62q-18 -22 -47 -29t-58 -5t-51 12t-28 22q-2 24 -5 58t-7 72t-12 75t-20 65q-6 12 -22 13t-33 1t-33 5t-24 23q-12 24 -7 40zM438 548q-2 -48 8 -52q94 2 192 2t186 -18q-12 26 -36 101t-55 166 t-66 184t-71 157q-22 10 -44 -28t-42 -103t-36 -144t-25 -148t-11 -117zM448 1604q38 48 62 49t45 -27t45 -77t64 -105q-24 -62 -59 -60t-69 37t-60 88t-28 95z" />
<glyph unicode="&#xc1;" d="M67 450q5 16 20 27t34 17t33 10q12 -2 14 2t-1 26t-10 68t-16 130t-18 213t-15 315q62 14 94 4t44 -40t11 -77t-3 -109t3 -135t27 -155q-8 178 24 299t89 183t130 63t148 -60t145 -187t120 -318q48 -186 86 -303t63 -191t37 -116t6 -76q-60 -36 -101 -6t-70 89t-47 126 t-32 103q-16 8 -56 13t-100 7t-137 3t-165 1q-6 -30 -9 -67t-3 -75t1 -74t1 -62q-18 -22 -47 -29t-58 -5t-51 12t-28 22q-2 24 -5 58t-7 72t-12 75t-20 65q-6 12 -22 13t-33 1t-33 5t-24 23q-12 24 -7 40zM438 548q-2 -48 8 -52q94 2 192 2t186 -18q-12 26 -36 101t-55 166 t-66 184t-71 157q-22 10 -44 -28t-42 -103t-36 -144t-25 -148t-11 -117zM446 1424q40 56 64 105t45 77t45 27t62 -49q-4 -42 -29 -95t-59 -88t-69 -37t-59 60z" />
<glyph unicode="&#xc2;" d="M67 450q5 16 20 27t34 17t33 10q12 -2 14 2t-1 26t-10 68t-16 130t-18 213t-15 315q62 14 94 4t44 -40t11 -77t-3 -109t3 -135t27 -155q-8 178 24 299t89 183t130 63t148 -60t145 -187t120 -318q48 -186 86 -303t63 -191t37 -116t6 -76q-60 -36 -101 -6t-70 89t-47 126 t-32 103q-16 8 -56 13t-100 7t-137 3t-165 1q-6 -30 -9 -67t-3 -75t1 -74t1 -62q-18 -22 -47 -29t-58 -5t-51 12t-28 22q-2 24 -5 58t-7 72t-12 75t-20 65q-6 12 -22 13t-33 1t-33 5t-24 23q-12 24 -7 40zM306 1448l74 182q22 40 54 62t68 25t72 -13t64 -54l114 -184 q12 -34 4 -58t-28 -36t-46 -9t-50 27q-18 18 -28 32t-19 30t-21 40t-32 62q-16 -46 -24 -65t-12 -28t-8 -17t-12 -32q-24 -48 -58 -61t-63 -2t-45 39t-4 60zM438 548q-2 -48 8 -52q94 2 192 2t186 -18q-12 26 -36 101t-55 166t-66 184t-71 157q-22 10 -44 -28t-42 -103 t-36 -144t-25 -148t-11 -117z" />
<glyph unicode="&#xc3;" d="M67 450q5 16 20 27t34 17t33 10q12 -2 14 2t-1 26t-10 68t-16 130t-18 213t-15 315q62 14 94 4t44 -40t11 -77t-3 -109t3 -135t27 -155q-8 178 24 299t89 183t130 63t148 -60t145 -187t120 -318q48 -186 86 -303t63 -191t37 -116t6 -76q-60 -36 -101 -6t-70 89t-47 126 t-32 103q-16 8 -56 13t-100 7t-137 3t-165 1q-6 -30 -9 -67t-3 -75t1 -74t1 -62q-18 -22 -47 -29t-58 -5t-51 12t-28 22q-2 24 -5 58t-7 72t-12 75t-20 65q-6 12 -22 13t-33 1t-33 5t-24 23q-12 24 -7 40zM164 1423q12 51 51 91t94 63t101 19q32 -2 56 -16t45 -32t41 -38 t44 -34q20 -12 39 -12t34 9t23 27t4 40q-6 20 -18 35t-21 27t-9 26t16 34q94 20 139 -8t50 -77t-23 -105t-76 -94t-112 -44t-130 46q-26 14 -47 39t-59 39q-40 12 -64 -5t-40 -45t-28 -58t-28 -44q-24 -4 -32 -3t-22 19q-40 50 -28 101zM438 548q-2 -48 8 -52q94 2 192 2 t186 -18q-12 26 -36 101t-55 166t-66 184t-71 157q-22 10 -44 -28t-42 -103t-36 -144t-25 -148t-11 -117z" />
<glyph unicode="&#xc4;" d="M67 450q5 16 20 27t34 17t33 10q12 -2 14 2t-1 26t-10 68t-16 130t-18 213t-15 315q62 14 94 4t44 -40t11 -77t-3 -109t3 -135t27 -155q-8 178 24 299t89 183t130 63t148 -60t145 -187t120 -318q48 -186 86 -303t63 -191t37 -116t6 -76q-60 -36 -101 -6t-70 89t-47 126 t-32 103q-16 8 -56 13t-100 7t-137 3t-165 1q-6 -30 -9 -67t-3 -75t1 -74t1 -62q-18 -22 -47 -29t-58 -5t-51 12t-28 22q-2 24 -5 58t-7 72t-12 75t-20 65q-6 12 -22 13t-33 1t-33 5t-24 23q-12 24 -7 40zM284 1459q0 37 24 61t64 29t76 -23q42 -34 40 -70t-28 -60t-64 -30 t-68 20q-44 36 -44 73zM438 548q-2 -48 8 -52q94 2 192 2t186 -18q-12 26 -36 101t-55 166t-66 184t-71 157q-22 10 -44 -28t-42 -103t-36 -144t-25 -148t-11 -117zM588 1465q0 37 24 61t63 29t75 -23q42 -34 40 -70t-27 -60t-63 -30t-68 20q-44 36 -44 73z" />
<glyph unicode="&#xc5;" d="M67 450q5 16 20 27t34 17t33 10q12 -2 14 2t-1 26t-10 68t-16 130t-18 213t-15 315q62 14 94 4t44 -40t11 -77t-3 -109t3 -135t27 -155q-8 178 24 299t89 183t130 63t148 -60t145 -187t120 -318q48 -186 86 -303t63 -191t37 -116t6 -76q-60 -36 -101 -6t-70 89t-47 126 t-32 103q-16 8 -56 13t-100 7t-137 3t-165 1q-6 -30 -9 -67t-3 -75t1 -74t1 -62q-18 -22 -47 -29t-58 -5t-51 12t-28 22q-2 24 -5 58t-7 72t-12 75t-20 65q-6 12 -22 13t-33 1t-33 5t-24 23q-12 24 -7 40zM368 1455q-4 41 16 75t60 46q86 20 157 10t117 -40t61 -73t-9 -89 q-10 -20 -40 -36t-69 -26t-82 -12t-77 4q-66 20 -98 60t-36 81zM438 548q-2 -48 8 -52q94 2 192 2t186 -18q-12 26 -36 101t-55 166t-66 184t-71 157q-22 10 -44 -28t-42 -103t-36 -144t-25 -148t-11 -117zM494 1476q-10 -24 7 -48t65 -10q70 0 80 20t-13 39t-65 24t-74 -25 z" />
<glyph unicode="&#xc6;" horiz-adv-x="1940" d="M67 450q5 16 20 27t34 17t33 10q12 -2 14 2t-1 26t-10 68t-16 130t-18 213t-15 315q62 14 94 4t44 -40t11 -77t-3 -109t3 -135t27 -155q-8 178 24 299t89 183t130 63t148 -60t145 -187t120 -318q48 -186 86 -303t63 -191t37 -116t6 -76q-60 -36 -101 -6t-70 89t-47 126 t-32 103q-16 8 -56 13t-100 7t-137 3t-165 1q-6 -30 -9 -67t-3 -75t1 -74t1 -62q-18 -22 -47 -29t-58 -5t-51 12t-28 22q-2 24 -5 58t-7 72t-12 75t-20 65q-6 12 -22 13t-33 1t-33 5t-24 23q-12 24 -7 40zM438 548q-2 -48 8 -52q94 2 192 2t186 -18q-12 26 -36 101t-55 166 t-66 184t-71 157q-22 10 -44 -28t-42 -103t-36 -144t-25 -148t-11 -117zM882 730q-26 104 8 198t114 171t184 128t222 70t226 -3q32 -10 44 -30t9 -42t-18 -44t-35 -36q-66 2 -142 -8t-150 -33t-137 -61t-99 -91t-39 -121t43 -152l130 118q20 18 49 24t57 2t53 -19t37 -39 q20 -38 12 -74t-32 -67t-57 -58t-65 -49t-56 -39t-30 -27q-6 -38 -11 -74t-3 -67t15 -59t43 -50q50 -40 119 -18t136 72t122 110t79 96q38 62 63 91t44 36t39 -3t48 -26q8 -64 -24 -134t-90 -134t-134 -119t-157 -90t-160 -46t-141 13q-34 12 -67 38t-59 79t-42 139t-16 220 q-106 104 -132 208z" />
<glyph unicode="&#xc7;" horiz-adv-x="944" d="M44 684q-6 120 17 226t67 187t104 130t126 53t133 -44t127 -160q16 -34 3 -62t-40 -45t-59 -21t-54 12q-58 82 -103 89t-77 -36t-50 -126t-20 -180t12 -196t44 -175t78 -119t116 -27q60 0 112 27t96 67t80 85t66 83t55 61t47 17q20 -74 -5 -153t-80 -148t-134 -121 t-165 -71t-171 0t-155 93t-116 209t-54 345zM368 -217q14 23 78 21q14 -10 34 -27t42 -29t47 -13t49 23q20 42 6 58t-45 23t-72 14t-75 28t-53 64t-7 125q62 32 91 19t39 -40t8 -52t0 -15q0 -22 38 -31t84 -23t87 -38t51 -74q16 -58 -3 -100t-61 -66t-99 -29t-117 9 q-34 12 -69 41t-51 59t-2 53z" />
<glyph unicode="&#xc8;" horiz-adv-x="1118" d="M52 706q-26 104 8 198t114 171t184 128t222 70t226 -3q32 -10 44 -30t9 -42t-18 -44t-35 -36q-66 2 -142 -8t-150 -33t-137 -61t-99 -91t-39 -121t43 -152l130 118q20 18 49 24t57 2t53 -19t37 -39q20 -38 12 -74t-32 -67t-57 -58t-65 -49t-56 -39t-30 -27 q-6 -38 -11 -74t-3 -67t15 -59t43 -50q50 -40 119 -18t136 72t122 110t79 96q38 62 63 91t44 36t39 -3t48 -26q8 -64 -24 -134t-90 -134t-134 -119t-157 -90t-160 -46t-141 13q-34 12 -67 38t-59 79t-42 139t-16 220q-106 104 -132 208zM372 1538q38 48 62 49t45 -27t45 -77 t64 -105q-24 -62 -59 -60t-69 37t-60 88t-28 95z" />
<glyph unicode="&#xc9;" horiz-adv-x="1118" d="M52 706q-26 104 8 198t114 171t184 128t222 70t226 -3q32 -10 44 -30t9 -42t-18 -44t-35 -36q-66 2 -142 -8t-150 -33t-137 -61t-99 -91t-39 -121t43 -152l130 118q20 18 49 24t57 2t53 -19t37 -39q20 -38 12 -74t-32 -67t-57 -58t-65 -49t-56 -39t-30 -27 q-6 -38 -11 -74t-3 -67t15 -59t43 -50q50 -40 119 -18t136 72t122 110t79 96q38 62 63 91t44 36t39 -3t48 -26q8 -64 -24 -134t-90 -134t-134 -119t-157 -90t-160 -46t-141 13q-34 12 -67 38t-59 79t-42 139t-16 220q-106 104 -132 208zM450 1360q40 56 64 105t45 77t45 27 t62 -49q-4 -42 -29 -95t-59 -88t-69 -37t-59 60z" />
<glyph unicode="&#xca;" horiz-adv-x="1118" d="M52 706q-26 104 8 198t114 171t184 128t222 70t226 -3q32 -10 44 -30t9 -42t-18 -44t-35 -36q-66 2 -142 -8t-150 -33t-137 -61t-99 -91t-39 -121t43 -152l130 118q20 18 49 24t57 2t53 -19t37 -39q20 -38 12 -74t-32 -67t-57 -58t-65 -49t-56 -39t-30 -27 q-6 -38 -11 -74t-3 -67t15 -59t43 -50q50 -40 119 -18t136 72t122 110t79 96q38 62 63 91t44 36t39 -3t48 -26q8 -64 -24 -134t-90 -134t-134 -119t-157 -90t-160 -46t-141 13q-34 12 -67 38t-59 79t-42 139t-16 220q-106 104 -132 208zM336 1390l74 182q22 40 54 62t68 25 t72 -13t64 -54l114 -184q12 -34 4 -58t-28 -36t-46 -9t-50 27q-18 18 -28 32t-19 30t-21 40t-32 62q-16 -46 -24 -65t-12 -28t-8 -17t-12 -32q-24 -48 -58 -61t-63 -2t-45 39t-4 60z" />
<glyph unicode="&#xcb;" horiz-adv-x="1118" d="M52 706q-26 104 8 198t114 171t184 128t222 70t226 -3q32 -10 44 -30t9 -42t-18 -44t-35 -36q-66 2 -142 -8t-150 -33t-137 -61t-99 -91t-39 -121t43 -152l130 118q20 18 49 24t57 2t53 -19t37 -39q20 -38 12 -74t-32 -67t-57 -58t-65 -49t-56 -39t-30 -27 q-6 -38 -11 -74t-3 -67t15 -59t43 -50q50 -40 119 -18t136 72t122 110t79 96q38 62 63 91t44 36t39 -3t48 -26q8 -64 -24 -134t-90 -134t-134 -119t-157 -90t-160 -46t-141 13q-34 12 -67 38t-59 79t-42 139t-16 220q-106 104 -132 208zM306 1413q0 37 24 61t64 29t76 -23 q42 -34 40 -70t-28 -60t-64 -30t-68 20q-44 36 -44 73zM610 1419q0 37 24 61t63 29t75 -23q42 -34 40 -70t-27 -60t-63 -30t-68 20q-44 36 -44 73z" />
<glyph unicode="&#xcc;" horiz-adv-x="424" d="M116 1214q14 24 38 41t51 22t53 -4t42 -37q2 -156 17 -302t31 -289t27 -286t5 -293q-10 -28 -30 -43t-45 -20t-51 0t-48 19q-4 2 -12 15t-10 17q4 84 4 140t-2 110t-7 117t-14 164t-21 251t-28 378zM122 1552q38 48 62 49t45 -27t45 -77t64 -105q-24 -62 -59 -60t-69 37 t-60 88t-28 95z" />
<glyph unicode="&#xcd;" horiz-adv-x="424" d="M98 1386q40 56 64 105t45 77t45 27t62 -49q-4 -42 -29 -95t-59 -88t-69 -37t-59 60zM116 1214q14 24 38 41t51 22t53 -4t42 -37q2 -156 17 -302t31 -289t27 -286t5 -293q-10 -28 -30 -43t-45 -20t-51 0t-48 19q-4 2 -12 15t-10 17q4 84 4 140t-2 110t-7 117t-14 164 t-21 251t-28 378z" />
<glyph unicode="&#xce;" horiz-adv-x="424" d="M-10 1390l74 182q22 40 54 62t68 25t72 -13t64 -54l114 -184q12 -34 4 -58t-28 -36t-46 -9t-50 27q-18 18 -28 32t-19 30t-21 40t-32 62q-16 -46 -24 -65t-12 -28t-8 -17t-12 -32q-24 -48 -58 -61t-63 -2t-45 39t-4 60zM116 1214q14 24 38 41t51 22t53 -4t42 -37 q2 -156 17 -302t31 -289t27 -286t5 -293q-10 -28 -30 -43t-45 -20t-51 0t-48 19q-4 2 -12 15t-10 17q4 84 4 140t-2 110t-7 117t-14 164t-21 251t-28 378z" />
<glyph unicode="&#xcf;" horiz-adv-x="424" d="M-38 1413q0 37 24 61t64 29t76 -23q42 -34 40 -70t-28 -60t-64 -30t-68 20q-44 36 -44 73zM116 1214q14 24 38 41t51 22t53 -4t42 -37q2 -156 17 -302t31 -289t27 -286t5 -293q-10 -28 -30 -43t-45 -20t-51 0t-48 19q-4 2 -12 15t-10 17q4 84 4 140t-2 110t-7 117 t-14 164t-21 251t-28 378zM266 1419q0 37 24 61t63 29t75 -23q42 -34 40 -70t-27 -60t-63 -30t-68 20q-44 36 -44 73z" />
<glyph unicode="&#xd0;" horiz-adv-x="978" d="M-52 691q-14 37 4 68t60 51t96 12l384 -8q40 4 76 -11t54 -41t10 -58t-56 -62l-554 -12q-60 24 -74 61zM38 1110q8 40 30 75t49 57t55 25t50 -23q64 6 133 4t137 -14t133 -36t121 -64q128 -116 174 -253t29 -274t-87 -259t-174 -207t-230 -120t-256 5q-28 6 -58 30 t-47 54t-13 61t44 53q2 74 -3 167t-12 193t-14 198t-9 180q-38 30 -49 69t-3 79zM254 1046q8 -210 19 -436t39 -438q80 -2 153 28t133 87t104 140t66 191q8 134 -16 222t-76 142t-131 80t-179 34q-12 2 -32 2t-38 -5t-31 -16t-11 -31z" />
<glyph unicode="&#xd1;" horiz-adv-x="1324" d="M54 54q2 72 6 131t7 117t5 123t5 149t4 191t3 253q0 34 -7 83t-4 91t23 68t74 18q28 -4 49 -8t52 -28t81 -80t136 -166t218 -286t326 -438q38 52 51 144t11 202t-11 223t-17 207t-9 156t17 68q40 6 67 3t45 -16t29 -37t21 -58q20 -132 33 -265t8 -265t-31 -262t-86 -254 q-42 -68 -97 -68t-117 46t-130 127t-135 175t-130 193t-118 179t-97 131t-68 53q2 -96 6 -214t2 -241t-12 -241t-36 -214q-16 -22 -42 -34t-51 -12t-48 14t-33 42zM324 1383q12 51 51 91t94 63t101 19q32 -2 56 -16t45 -32t41 -38t44 -34q20 -12 39 -12t34 9t23 27t4 40 q-6 20 -18 35t-21 27t-9 26t16 34q94 20 139 -8t50 -77t-23 -105t-76 -94t-112 -44t-130 46q-26 14 -47 39t-59 39q-40 12 -64 -5t-40 -45t-28 -58t-28 -44q-24 -4 -32 -3t-22 19q-40 50 -28 101z" />
<glyph unicode="&#xd2;" horiz-adv-x="1052" d="M30 612q2 142 42 271t114 229t170 141t209 6t233 -177q86 -82 141 -200t74 -244t-1 -248t-83 -212t-172 -135t-267 -19q-166 22 -267 111t-148 212t-45 265zM218 610q-2 -88 22 -168t76 -146t140 -106q100 -36 171 -20t116 64t67 121t25 153t-10 158t-37 138 q-62 136 -140 205t-154 67t-144 -75t-108 -219q-22 -84 -24 -172zM418 1520q38 48 62 49t45 -27t45 -77t64 -105q-24 -62 -59 -60t-69 37t-60 88t-28 95z" />
<glyph unicode="&#xd3;" horiz-adv-x="1052" d="M30 612q2 142 42 271t114 229t170 141t209 6t233 -177q86 -82 141 -200t74 -244t-1 -248t-83 -212t-172 -135t-267 -19q-166 22 -267 111t-148 212t-45 265zM218 610q-2 -88 22 -168t76 -146t140 -106q100 -36 171 -20t116 64t67 121t25 153t-10 158t-37 138 q-62 136 -140 205t-154 67t-144 -75t-108 -219q-22 -84 -24 -172zM384 1392q40 56 64 105t45 77t45 27t62 -49q-4 -42 -29 -95t-59 -88t-69 -37t-59 60z" />
<glyph unicode="&#xd4;" horiz-adv-x="1052" d="M30 612q2 142 42 271t114 229t170 141t209 6t233 -177q86 -82 141 -200t74 -244t-1 -248t-83 -212t-172 -135t-267 -19q-166 22 -267 111t-148 212t-45 265zM218 610q-2 -88 22 -168t76 -146t140 -106q100 -36 171 -20t116 64t67 121t25 153t-10 158t-37 138 q-62 136 -140 205t-154 67t-144 -75t-108 -219q-22 -84 -24 -172zM252 1410l74 182q22 40 54 62t68 25t72 -13t64 -54l114 -184q12 -34 4 -58t-28 -36t-46 -9t-50 27q-18 18 -28 32t-19 30t-21 40t-32 62q-16 -46 -24 -65t-12 -28t-8 -17t-12 -32q-24 -48 -58 -61t-63 -2 t-45 39t-4 60z" />
<glyph unicode="&#xd5;" horiz-adv-x="1052" d="M30 612q2 142 42 271t114 229t170 141t209 6t233 -177q86 -82 141 -200t74 -244t-1 -248t-83 -212t-172 -135t-267 -19q-166 22 -267 111t-148 212t-45 265zM122 1397q12 51 51 91t94 63t101 19q32 -2 56 -16t45 -32t41 -38t44 -34q20 -12 39 -12t34 9t23 27t4 40 q-6 20 -18 35t-21 27t-9 26t16 34q94 20 139 -8t50 -77t-23 -105t-76 -94t-112 -44t-130 46q-26 14 -47 39t-59 39q-40 12 -64 -5t-40 -45t-28 -58t-28 -44q-24 -4 -32 -3t-22 19q-40 50 -28 101zM218 610q-2 -88 22 -168t76 -146t140 -106q100 -36 171 -20t116 64t67 121 t25 153t-10 158t-37 138q-62 136 -140 205t-154 67t-144 -75t-108 -219q-22 -84 -24 -172z" />
<glyph unicode="&#xd6;" horiz-adv-x="1052" d="M30 612q2 142 42 271t114 229t170 141t209 6t233 -177q86 -82 141 -200t74 -244t-1 -248t-83 -212t-172 -135t-267 -19q-166 22 -267 111t-148 212t-45 265zM194 1413q0 37 24 61t64 29t76 -23q42 -34 40 -70t-28 -60t-64 -30t-68 20q-44 36 -44 73zM218 610 q-2 -88 22 -168t76 -146t140 -106q100 -36 171 -20t116 64t67 121t25 153t-10 158t-37 138q-62 136 -140 205t-154 67t-144 -75t-108 -219q-22 -84 -24 -172zM498 1419q0 37 24 61t63 29t75 -23q42 -34 40 -70t-27 -60t-63 -30t-68 20q-44 36 -44 73z" />
<glyph unicode="&#xd7;" horiz-adv-x="804" d="M108 199q-10 19 2 55q14 24 42 52t57 61t51 69t26 76l-176 242q0 4 1 16t11 24t33 22t65 10q14 -4 38 -30t49 -58t46 -61t27 -39q10 -14 22 -5t26 31t33 50t41 52t50 37t62 5t43 -39t-5 -59q-8 -12 -28 -41t-43 -62t-43 -62t-28 -41q-10 -32 1 -60t32 -52t50 -46t55 -45 t45 -48t23 -55q-24 -44 -53 -49t-62 13t-66 50t-63 63t-54 51t-38 16q-12 -12 -33 -35t-43 -49t-44 -48t-36 -30q-18 -10 -42 -13t-44 5t-30 27z" />
<glyph unicode="&#xd8;" horiz-adv-x="1052" d="M30 612q2 142 42 271t114 229t170 141t209 6t233 -177q86 -82 141 -200t74 -244t-1 -248t-83 -212t-172 -135t-267 -19q-166 22 -267 111t-148 212t-45 265zM218 610q-2 -88 22 -168t76 -146t140 -106q100 -36 171 -20t116 64t67 121t25 153t-10 158t-37 138 q-62 136 -140 205t-154 67t-144 -75t-108 -219q-22 -84 -24 -172zM232 82q-10 30 6 54l454 1092q8 30 33 48t52 21t50 -15t27 -60l-480 -1152q-26 -46 -57 -50t-53 14t-32 48z" />
<glyph unicode="&#xd9;" horiz-adv-x="1010" d="M18 856q-10 156 22 318q-4 48 20 74t59 32t74 -8t63 -44v-10q-36 -88 -42 -196t12 -218t54 -212t83 -179t101 -119t108 -31t103 83t87 224q12 78 14 166t-3 174t-15 161t-24 123q-6 44 23 63t68 19t76 -16t49 -46q4 -10 7 -52t3 -104t-1 -137t-4 -149t-8 -142t-11 -114 q-50 -196 -122 -306t-154 -151t-169 -19t-167 92t-146 181t-108 249t-52 294zM396 1520q38 48 62 49t45 -27t45 -77t64 -105q-24 -62 -59 -60t-69 37t-60 88t-28 95z" />
<glyph unicode="&#xda;" horiz-adv-x="1010" d="M18 856q-10 156 22 318q-4 48 20 74t59 32t74 -8t63 -44v-10q-36 -88 -42 -196t12 -218t54 -212t83 -179t101 -119t108 -31t103 83t87 224q12 78 14 166t-3 174t-15 161t-24 123q-6 44 23 63t68 19t76 -16t49 -46q4 -10 7 -52t3 -104t-1 -137t-4 -149t-8 -142t-11 -114 q-50 -196 -122 -306t-154 -151t-169 -19t-167 92t-146 181t-108 249t-52 294zM396 1360q40 56 64 105t45 77t45 27t62 -49q-4 -42 -29 -95t-59 -88t-69 -37t-59 60z" />
<glyph unicode="&#xdb;" horiz-adv-x="1010" d="M18 856q-10 156 22 318q-4 48 20 74t59 32t74 -8t63 -44v-10q-36 -88 -42 -196t12 -218t54 -212t83 -179t101 -119t108 -31t103 83t87 224q12 78 14 166t-3 174t-15 161t-24 123q-6 44 23 63t68 19t76 -16t49 -46q4 -10 7 -52t3 -104t-1 -137t-4 -149t-8 -142t-11 -114 q-50 -196 -122 -306t-154 -151t-169 -19t-167 92t-146 181t-108 249t-52 294zM282 1390l74 182q22 40 54 62t68 25t72 -13t64 -54l114 -184q12 -34 4 -58t-28 -36t-46 -9t-50 27q-18 18 -28 32t-19 30t-21 40t-32 62q-16 -46 -24 -65t-12 -28t-8 -17t-12 -32 q-24 -48 -58 -61t-63 -2t-45 39t-4 60z" />
<glyph unicode="&#xdc;" horiz-adv-x="1010" d="M18 856q-10 156 22 318q-4 48 20 74t59 32t74 -8t63 -44v-10q-36 -88 -42 -196t12 -218t54 -212t83 -179t101 -119t108 -31t103 83t87 224q12 78 14 166t-3 174t-15 161t-24 123q-6 44 23 63t68 19t76 -16t49 -46q4 -10 7 -52t3 -104t-1 -137t-4 -149t-8 -142t-11 -114 q-50 -196 -122 -306t-154 -151t-169 -19t-167 92t-146 181t-108 249t-52 294zM252 1413q0 37 24 61t64 29t76 -23q42 -34 40 -70t-28 -60t-64 -30t-68 20q-44 36 -44 73zM556 1419q0 37 24 61t63 29t75 -23q42 -34 40 -70t-27 -60t-63 -30t-68 20q-44 36 -44 73z" />
<glyph unicode="&#xdd;" horiz-adv-x="1096" d="M89 1249q11 25 42 34t69 4t60 -25q66 -56 109 -110t81 -108t81 -109t109 -113q14 16 35 68t47 118t58 132t69 108t78 48t87 -50q0 -22 -19 -69t-47 -108t-61 -131t-63 -138t-51 -131t-25 -109q-2 -8 -3 -47t-3 -93t-4 -116t-5 -117t-7 -98t-8 -57q-86 -34 -122 -12 t-45 79t0 137t17 162t4 155t-40 115l-422 518q-32 38 -21 63zM440 1360q40 56 64 105t45 77t45 27t62 -49q-4 -42 -29 -95t-59 -88t-69 -37t-59 60z" />
<glyph unicode="&#xde;" horiz-adv-x="966" d="M94 946q0 8 22 15t50 8t54 -4t36 -19q12 -72 18 -123t11 -100t12 -108t21 -147q34 56 81 104t102 82t118 50t127 8q112 -32 155 -96t32 -137t-64 -146t-133 -124t-177 -69t-191 18q-2 -90 7 -166t2 -126t-44 -69t-129 5q-6 36 -10 80t-9 104t-11 143t-16 198t-26 267 t-38 352zM430 298q150 0 228 46t98 99t-9 91t-93 20q-16 -6 -51 -21t-71 -45t-66 -76t-36 -114z" />
<glyph unicode="&#xdf;" horiz-adv-x="1036" d="M82 1004q4 92 56 145t129 73t168 11t171 -40t137 -80t69 -109t-34 -128t-174 -136q56 6 114 -2t108 -31t89 -63t59 -96q34 -100 8 -182t-90 -144t-154 -104t-184 -62l26 168q94 14 158 60t96 102t28 113t-48 93t-131 42t-219 -38q-50 36 -61 74t0 71t34 57t39 34 q94 58 133 105t37 81t-36 56t-83 30t-106 4t-104 -22t-77 -50t-26 -76q34 -140 57 -276t43 -277t38 -292t42 -319q-26 -14 -57 -19t-57 0t-42 21t-12 44q10 56 1 138t-26 180t-39 207t-41 220t-31 217t-8 200z" />
<glyph unicode="&#xe0;" horiz-adv-x="810" d="M46 636q136 196 249 271t201 63t150 -94t95 -200t35 -255t-28 -259q50 -84 43 -126t-43 -45t-87 29t-87 96q-24 -14 -74 -37t-110 -44t-122 -33t-111 -5t-75 40t-16 103q20 84 73 130t123 64t147 13t145 -23q20 70 23 148t-11 142t-45 107t-78 44t-111 -49t-144 -168 q-26 -16 -54 -19t-50 8t-34 35t-4 64zM236 138q6 -10 32 -8t58 10t59 20t33 24q0 18 -30 23t-64 -1t-63 -23t-25 -45zM330 1264q38 48 62 49t45 -27t45 -77t64 -105q-24 -62 -59 -60t-69 37t-60 88t-28 95z" />
<glyph unicode="&#xe1;" horiz-adv-x="810" d="M46 636q136 196 249 271t201 63t150 -94t95 -200t35 -255t-28 -259q50 -84 43 -126t-43 -45t-87 29t-87 96q-24 -14 -74 -37t-110 -44t-122 -33t-111 -5t-75 40t-16 103q20 84 73 130t123 64t147 13t145 -23q20 70 23 148t-11 142t-45 107t-78 44t-111 -49t-144 -168 q-26 -16 -54 -19t-50 8t-34 35t-4 64zM236 138q6 -10 32 -8t58 10t59 20t33 24q0 18 -30 23t-64 -1t-63 -23t-25 -45zM330 1098q40 56 64 105t45 77t45 27t62 -49q-4 -42 -29 -95t-59 -88t-69 -37t-59 60z" />
<glyph unicode="&#xe2;" horiz-adv-x="810" d="M46 636q136 196 249 271t201 63t150 -94t95 -200t35 -255t-28 -259q50 -84 43 -126t-43 -45t-87 29t-87 96q-24 -14 -74 -37t-110 -44t-122 -33t-111 -5t-75 40t-16 103q20 84 73 130t123 64t147 13t145 -23q20 70 23 148t-11 142t-45 107t-78 44t-111 -49t-144 -168 q-26 -16 -54 -19t-50 8t-34 35t-4 64zM202 1094l74 182q22 40 54 62t68 25t72 -13t64 -54l114 -184q12 -34 4 -58t-28 -36t-46 -9t-50 27q-18 18 -28 32t-19 30t-21 40t-32 62q-16 -46 -24 -65t-12 -28t-8 -17t-12 -32q-24 -48 -58 -61t-63 -2t-45 39t-4 60zM236 138 q6 -10 32 -8t58 10t59 20t33 24q0 18 -30 23t-64 -1t-63 -23t-25 -45z" />
<glyph unicode="&#xe3;" horiz-adv-x="810" d="M46 636q136 196 249 271t201 63t150 -94t95 -200t35 -255t-28 -259q50 -84 43 -126t-43 -45t-87 29t-87 96q-24 -14 -74 -37t-110 -44t-122 -33t-111 -5t-75 40t-16 103q20 84 73 130t123 64t147 13t145 -23q20 70 23 148t-11 142t-45 107t-78 44t-111 -49t-144 -168 q-26 -16 -54 -19t-50 8t-34 35t-4 64zM100 1115q12 51 51 91t94 63t101 19q32 -2 56 -16t45 -32t41 -38t44 -34q20 -12 39 -12t34 9t23 27t4 40q-6 20 -18 35t-21 27t-9 26t16 34q94 20 139 -8t50 -77t-23 -105t-76 -94t-112 -44t-130 46q-26 14 -47 39t-59 39 q-40 12 -64 -5t-40 -45t-28 -58t-28 -44q-24 -4 -32 -3t-22 19q-40 50 -28 101zM236 138q6 -10 32 -8t58 10t59 20t33 24q0 18 -30 23t-64 -1t-63 -23t-25 -45z" />
<glyph unicode="&#xe4;" horiz-adv-x="810" d="M46 636q136 196 249 271t201 63t150 -94t95 -200t35 -255t-28 -259q50 -84 43 -126t-43 -45t-87 29t-87 96q-24 -14 -74 -37t-110 -44t-122 -33t-111 -5t-75 40t-16 103q20 84 73 130t123 64t147 13t145 -23q20 70 23 148t-11 142t-45 107t-78 44t-111 -49t-144 -168 q-26 -16 -54 -19t-50 8t-34 35t-4 64zM166 1123q0 37 24 61t64 29t76 -23q42 -34 40 -70t-28 -60t-64 -30t-68 20q-44 36 -44 73zM236 138q6 -10 32 -8t58 10t59 20t33 24q0 18 -30 23t-64 -1t-63 -23t-25 -45zM470 1129q0 37 24 61t63 29t75 -23q42 -34 40 -70t-27 -60 t-63 -30t-68 20q-44 36 -44 73z" />
<glyph unicode="&#xe5;" horiz-adv-x="810" d="M46 636q136 196 249 271t201 63t150 -94t95 -200t35 -255t-28 -259q50 -84 43 -126t-43 -45t-87 29t-87 96q-24 -14 -74 -37t-110 -44t-122 -33t-111 -5t-75 40t-16 103q20 84 73 130t123 64t147 13t145 -23q20 70 23 148t-11 142t-45 107t-78 44t-111 -49t-144 -168 q-26 -16 -54 -19t-50 8t-34 35t-4 64zM194 1133q-4 41 16 75t60 46q86 20 157 10t117 -40t61 -73t-9 -89q-10 -20 -40 -36t-69 -26t-82 -12t-77 4q-66 20 -98 60t-36 81zM236 138q6 -10 32 -8t58 10t59 20t33 24q0 18 -30 23t-64 -1t-63 -23t-25 -45zM320 1154 q-10 -24 7 -48t65 -10q70 0 80 20t-13 39t-65 24t-74 -25z" />
<glyph unicode="&#xe6;" horiz-adv-x="1434" d="M46 636q136 196 249 271t201 63t150 -94t95 -200t35 -255t-28 -259q50 -84 43 -126t-43 -45t-87 29t-87 96q-24 -14 -74 -37t-110 -44t-122 -33t-111 -5t-75 40t-16 103q20 84 73 130t123 64t147 13t145 -23q20 70 23 148t-11 142t-45 107t-78 44t-111 -49t-144 -168 q-26 -16 -54 -19t-50 8t-34 35t-4 64zM236 138q6 -10 32 -8t58 10t59 20t33 24q0 18 -30 23t-64 -1t-63 -23t-25 -45zM672 592q34 128 85 210t109 122t120 42t119 -29t104 -92t77 -147q10 -46 -13 -72t-64 -39t-95 -18t-108 -7t-101 -7t-73 -19q-20 -60 -10 -125t41 -120 t81 -94t111 -48t131 18t140 103q24 0 43 -9t29 -24t10 -34t-16 -39q-68 -104 -155 -146t-175 -35t-168 59t-137 134t-83 189t-2 227zM836 686q18 2 53 5t77 6t82 7t66 10q-18 36 -60 52t-88 13t-84 -26t-46 -67z" />
<glyph unicode="&#xe7;" horiz-adv-x="912" d="M51 413q3 63 15 119q38 176 91 274t110 136t114 29t105 -45t82 -89t44 -102t-7 -84t-73 -33q-28 14 -52 52t-47 73t-44 52t-41 -13q-92 -132 -125 -245t-21 -194t64 -125t134 -38t187 68t223 192q26 24 58 35t57 10t38 -14t3 -37q0 -44 -48 -105t-122 -123t-167 -115 t-183 -80t-171 -19t-131 68q-38 48 -59 107t-29 121t-5 125zM280 -257q14 23 78 21q14 -10 34 -27t42 -29t47 -13t49 23q20 42 6 58t-45 23t-72 14t-75 28t-53 64t-7 125q62 32 91 19t39 -40t8 -52t0 -15q0 -22 38 -31t84 -23t87 -38t51 -74q16 -58 -3 -100t-61 -66t-99 -29 t-117 9q-34 12 -69 41t-51 59t-2 53z" />
<glyph unicode="&#xe8;" horiz-adv-x="768" d="M24 596q34 128 85 210t109 122t120 42t119 -29t104 -92t77 -147q10 -46 -13 -72t-64 -39t-95 -18t-108 -7t-101 -7t-73 -19q-20 -60 -10 -125t41 -120t81 -94t111 -48t131 18t140 103q24 0 43 -9t29 -24t10 -34t-16 -39q-68 -104 -155 -146t-175 -35t-168 59t-137 134 t-83 189t-2 227zM188 690q18 2 53 5t77 6t82 7t66 10q-18 36 -60 52t-88 13t-84 -26t-46 -67zM244 1230q38 48 62 49t45 -27t45 -77t64 -105q-24 -62 -59 -60t-69 37t-60 88t-28 95z" />
<glyph unicode="&#xe9;" horiz-adv-x="768" d="M24 596q34 128 85 210t109 122t120 42t119 -29t104 -92t77 -147q10 -46 -13 -72t-64 -39t-95 -18t-108 -7t-101 -7t-73 -19q-20 -60 -10 -125t41 -120t81 -94t111 -48t131 18t140 103q24 0 43 -9t29 -24t10 -34t-16 -39q-68 -104 -155 -146t-175 -35t-168 59t-137 134 t-83 189t-2 227zM188 690q18 2 53 5t77 6t82 7t66 10q-18 36 -60 52t-88 13t-84 -26t-46 -67zM256 1092q40 56 64 105t45 77t45 27t62 -49q-4 -42 -29 -95t-59 -88t-69 -37t-59 60z" />
<glyph unicode="&#xea;" horiz-adv-x="768" d="M24 596q34 128 85 210t109 122t120 42t119 -29t104 -92t77 -147q10 -46 -13 -72t-64 -39t-95 -18t-108 -7t-101 -7t-73 -19q-20 -60 -10 -125t41 -120t81 -94t111 -48t131 18t140 103q24 0 43 -9t29 -24t10 -34t-16 -39q-68 -104 -155 -146t-175 -35t-168 59t-137 134 t-83 189t-2 227zM108 1114l74 182q22 40 54 62t68 25t72 -13t64 -54l114 -184q12 -34 4 -58t-28 -36t-46 -9t-50 27q-18 18 -28 32t-19 30t-21 40t-32 62q-16 -46 -24 -65t-12 -28t-8 -17t-12 -32q-24 -48 -58 -61t-63 -2t-45 39t-4 60zM188 690q18 2 53 5t77 6t82 7t66 10 q-18 36 -60 52t-88 13t-84 -26t-46 -67z" />
<glyph unicode="&#xeb;" horiz-adv-x="768" d="M24 596q34 128 85 210t109 122t120 42t119 -29t104 -92t77 -147q10 -46 -13 -72t-64 -39t-95 -18t-108 -7t-101 -7t-73 -19q-20 -60 -10 -125t41 -120t81 -94t111 -48t131 18t140 103q24 0 43 -9t29 -24t10 -34t-16 -39q-68 -104 -155 -146t-175 -35t-168 59t-137 134 t-83 189t-2 227zM66 1123q0 37 24 61t64 29t76 -23q42 -34 40 -70t-28 -60t-64 -30t-68 20q-44 36 -44 73zM188 690q18 2 53 5t77 6t82 7t66 10q-18 36 -60 52t-88 13t-84 -26t-46 -67zM370 1129q0 37 24 61t63 29t75 -23q42 -34 40 -70t-27 -60t-63 -30t-68 20 q-44 36 -44 73z" />
<glyph unicode="&#xec;" horiz-adv-x="390" d="M56 780q2 6 9 26t25 38t51 25t89 -13l138 -790q-4 -12 -28 -25t-54 -20t-60 -4t-42 27q-28 60 -48 158t-35 205t-26 208t-19 165zM86 1198q38 48 62 49t45 -27t45 -77t64 -105q-24 -62 -59 -60t-69 37t-60 88t-28 95z" />
<glyph unicode="&#xed;" horiz-adv-x="390" d="M56 780q2 6 9 26t25 38t51 25t89 -13l138 -790q-4 -12 -28 -25t-54 -20t-60 -4t-42 27q-28 60 -48 158t-35 205t-26 208t-19 165zM86 1038q40 56 64 105t45 77t45 27t62 -49q-4 -42 -29 -95t-59 -88t-69 -37t-59 60z" />
<glyph unicode="&#xee;" horiz-adv-x="390" d="M-24 1068l74 182q22 40 54 62t68 25t72 -13t64 -54l114 -184q12 -34 4 -58t-28 -36t-46 -9t-50 27q-18 18 -28 32t-19 30t-21 40t-32 62q-16 -46 -24 -65t-12 -28t-8 -17t-12 -32q-24 -48 -58 -61t-63 -2t-45 39t-4 60zM56 780q2 6 9 26t25 38t51 25t89 -13l138 -790 q-4 -12 -28 -25t-54 -20t-60 -4t-42 27q-28 60 -48 158t-35 205t-26 208t-19 165z" />
<glyph unicode="&#xef;" horiz-adv-x="390" d="M-56 1091q0 37 24 61t64 29t76 -23q42 -34 40 -70t-28 -60t-64 -30t-68 20q-44 36 -44 73zM56 780q2 6 9 26t25 38t51 25t89 -13l138 -790q-4 -12 -28 -25t-54 -20t-60 -4t-42 27q-28 60 -48 158t-35 205t-26 208t-19 165zM248 1097q0 37 24 61t63 29t75 -23 q42 -34 40 -70t-27 -60t-63 -30t-68 20q-44 36 -44 73z" />
<glyph unicode="&#xf0;" horiz-adv-x="1004" d="M68 527q18 75 92 125q64 32 124 1t112 -100t92 -166t64 -199q48 54 74 117t33 131t-1 139t-26 143l-200 -46q-34 18 -46 44t-7 52t20 49t35 35l140 38q-38 102 -80 191t-62 141l8 12q6 12 31 20t53 9t53 -6t33 -25q14 -34 27 -65t27 -66t28 -75t32 -92l148 48 q30 2 58 -16t42 -44t11 -54t-35 -46l-180 -62q10 -52 17 -108t10 -108t2 -98t-7 -78q-30 -168 -88 -256t-131 -115t-152 -3t-149 80t-124 135t-75 161t-3 157zM183 437q3 -47 22 -92t49 -85t59 -68t53 -40t30 -2q16 30 13 71t-20 85t-43 87t-53 75t-51 48t-38 10 q-24 -42 -21 -89z" />
<glyph unicode="&#xf1;" horiz-adv-x="1018" d="M10 700q-8 40 5 71t71 39q56 6 80 -24t33 -73t10 -86t11 -63q74 206 185 303t223 79t206 -156t134 -400l22 -176t1 -131t-43 -67t-110 16q-6 36 -18 110t-26 158l-27 162t-21 122q-42 106 -85 149t-86 38t-83 -48t-75 -110t-64 -147t-49 -158t-29 -146t-5 -108 q-18 -24 -42 -37t-48 -11t-45 18t-31 50q0 48 -2 112t-7 130t-13 127t-18 103q-8 30 -27 72t-27 82zM106 1075q12 51 51 91t94 63t101 19q32 -2 56 -16t45 -32t41 -38t44 -34q20 -12 39 -12t34 9t23 27t4 40q-6 20 -18 35t-21 27t-9 26t16 34q94 20 139 -8t50 -77t-23 -105 t-76 -94t-112 -44t-130 46q-26 14 -47 39t-59 39q-40 12 -64 -5t-40 -45t-28 -58t-28 -44q-24 -4 -32 -3t-22 19q-40 50 -28 101z" />
<glyph unicode="&#xf2;" horiz-adv-x="718" d="M22 504q2 100 23 188t57 153t82 91q90 34 165 18t134 -68t102 -131t68 -169t34 -184t-1 -176q-16 -66 -65 -116t-115 -79t-138 -35t-132 14q-78 46 -126 125t-69 174t-19 195zM206 1230q38 48 62 49t45 -27t45 -77t64 -105q-24 -62 -59 -60t-69 37t-60 88t-28 95z M212 423q2 -57 12 -113t33 -96t61 -58t96 4q64 24 93 76t32 117t-16 136t-50 130t-70 100t-75 46t-66 -31t-44 -132q-4 -26 -6 -74t0 -105z" />
<glyph unicode="&#xf3;" horiz-adv-x="718" d="M22 504q2 100 23 188t57 153t82 91q90 34 165 18t134 -68t102 -131t68 -169t34 -184t-1 -176q-16 -66 -65 -116t-115 -79t-138 -35t-132 14q-78 46 -126 125t-69 174t-19 195zM212 423q2 -57 12 -113t33 -96t61 -58t96 4q64 24 93 76t32 117t-16 136t-50 130t-70 100 t-75 46t-66 -31t-44 -132q-4 -26 -6 -74t0 -105zM230 1098q40 56 64 105t45 77t45 27t62 -49q-4 -42 -29 -95t-59 -88t-69 -37t-59 60z" />
<glyph unicode="&#xf4;" horiz-adv-x="718" d="M22 504q2 100 23 188t57 153t82 91q90 34 165 18t134 -68t102 -131t68 -169t34 -184t-1 -176q-16 -66 -65 -116t-115 -79t-138 -35t-132 14q-78 46 -126 125t-69 174t-19 195zM82 1092l74 182q22 40 54 62t68 25t72 -13t64 -54l114 -184q12 -34 4 -58t-28 -36t-46 -9 t-50 27q-18 18 -28 32t-19 30t-21 40t-32 62q-16 -46 -24 -65t-12 -28t-8 -17t-12 -32q-24 -48 -58 -61t-63 -2t-45 39t-4 60zM212 423q2 -57 12 -113t33 -96t61 -58t96 4q64 24 93 76t32 117t-16 136t-50 130t-70 100t-75 46t-66 -31t-44 -132q-4 -26 -6 -74t0 -105z" />
<glyph unicode="&#xf5;" horiz-adv-x="718" d="M-40 1075q12 51 51 91t94 63t101 19q32 -2 56 -16t45 -32t41 -38t44 -34q20 -12 39 -12t34 9t23 27t4 40q-6 20 -18 35t-21 27t-9 26t16 34q94 20 139 -8t50 -77t-23 -105t-76 -94t-112 -44t-130 46q-26 14 -47 39t-59 39q-40 12 -64 -5t-40 -45t-28 -58t-28 -44 q-24 -4 -32 -3t-22 19q-40 50 -28 101zM22 504q2 100 23 188t57 153t82 91q90 34 165 18t134 -68t102 -131t68 -169t34 -184t-1 -176q-16 -66 -65 -116t-115 -79t-138 -35t-132 14q-78 46 -126 125t-69 174t-19 195zM212 423q2 -57 12 -113t33 -96t61 -58t96 4q64 24 93 76 t32 117t-16 136t-50 130t-70 100t-75 46t-66 -31t-44 -132q-4 -26 -6 -74t0 -105z" />
<glyph unicode="&#xf6;" horiz-adv-x="718" d="M22 504q2 100 23 188t57 153t82 91q90 34 165 18t134 -68t102 -131t68 -169t34 -184t-1 -176q-16 -66 -65 -116t-115 -79t-138 -35t-132 14q-78 46 -126 125t-69 174t-19 195zM24 1085q0 37 24 61t64 29t76 -23q42 -34 40 -70t-28 -60t-64 -30t-68 20q-44 36 -44 73z M212 423q2 -57 12 -113t33 -96t61 -58t96 4q64 24 93 76t32 117t-16 136t-50 130t-70 100t-75 46t-66 -31t-44 -132q-4 -26 -6 -74t0 -105zM328 1091q0 37 24 61t63 29t75 -23q42 -34 40 -70t-27 -60t-63 -30t-68 20q-44 36 -44 73z" />
<glyph unicode="&#xf7;" horiz-adv-x="890" d="M104 470q-14 36 3 68t60 51t97 11l384 -8q40 4 76 -11t53 -41t10 -58t-55 -62l-554 -10q-60 24 -74 60zM317 793q-1 29 18 50t51 34t65 15t60 -9t35 -35q12 -34 -8 -66t-53 -52t-71 -23t-62 23q-34 34 -35 63zM329 218q-1 30 18 51t52 34t66 15t60 -9t35 -35 q12 -34 -8 -66t-53 -52t-71 -23t-64 21q-34 34 -35 64z" />
<glyph unicode="&#xf8;" horiz-adv-x="718" d="M28 510q2 100 23 188t57 153t82 91q90 34 165 18t134 -68t102 -131t68 -169t34 -184t-1 -176q-16 -66 -65 -116t-115 -79t-138 -35t-132 14q-78 46 -126 125t-69 174t-19 195zM32.5 -46.5q-10.5 25.5 6.5 46.5l485 940q9 26 35.5 41.5t55.5 18t53.5 -13t28.5 -51.5 l-513 -992q-28 -39 -61 -42.5t-56.5 12t-34 41zM218 429q2 -57 12 -113t33 -96t61 -58t96 4q64 24 93 76t32 117t-16 136t-50 130t-70 100t-75 46t-66 -31t-44 -132q-4 -26 -6 -74t0 -105z" />
<glyph unicode="&#xf9;" horiz-adv-x="846" d="M36 615q-4 51 3 97t32 77t81 25q34 -2 46 -36t17 -90t9 -125t23 -140t60 -138t119 -115q66 -8 104 20t55 80t17 122t-9 148t-24 157t-27 149q10 30 35 38t54 4t56 -16t41 -26q14 -86 30 -164t24 -156t2 -156t-36 -164q-24 -66 -66 -112t-96 -70t-118 -28t-130 14 q-64 22 -114 83t-87 137t-60 157t-33 145q-4 32 -8 83zM314 1198q38 48 62 49t45 -27t45 -77t64 -105q-24 -62 -59 -60t-69 37t-60 88t-28 95z" />
<glyph unicode="&#xfa;" horiz-adv-x="846" d="M36 615q-4 51 3 97t32 77t81 25q34 -2 46 -36t17 -90t9 -125t23 -140t60 -138t119 -115q66 -8 104 20t55 80t17 122t-9 148t-24 157t-27 149q10 30 35 38t54 4t56 -16t41 -26q14 -86 30 -164t24 -156t2 -156t-36 -164q-24 -66 -66 -112t-96 -70t-118 -28t-130 14 q-64 22 -114 83t-87 137t-60 157t-33 145q-4 32 -8 83zM314 1038q40 56 64 105t45 77t45 27t62 -49q-4 -42 -29 -95t-59 -88t-69 -37t-59 60z" />
<glyph unicode="&#xfb;" horiz-adv-x="846" d="M36 615q-4 51 3 97t32 77t81 25q34 -2 46 -36t17 -90t9 -125t23 -140t60 -138t119 -115q66 -8 104 20t55 80t17 122t-9 148t-24 157t-27 149q10 30 35 38t54 4t56 -16t41 -26q14 -86 30 -164t24 -156t2 -156t-36 -164q-24 -66 -66 -112t-96 -70t-118 -28t-130 14 q-64 22 -114 83t-87 137t-60 157t-33 145q-4 32 -8 83zM200 1068l74 182q22 40 54 62t68 25t72 -13t64 -54l114 -184q12 -34 4 -58t-28 -36t-46 -9t-50 27q-18 18 -28 32t-19 30t-21 40t-32 62q-16 -46 -24 -65t-12 -28t-8 -17t-12 -32q-24 -48 -58 -61t-63 -2t-45 39t-4 60 z" />
<glyph unicode="&#xfc;" horiz-adv-x="846" d="M36 615q-4 51 3 97t32 77t81 25q34 -2 46 -36t17 -90t9 -125t23 -140t60 -138t119 -115q66 -8 104 20t55 80t17 122t-9 148t-24 157t-27 149q10 30 35 38t54 4t56 -16t41 -26q14 -86 30 -164t24 -156t2 -156t-36 -164q-24 -66 -66 -112t-96 -70t-118 -28t-130 14 q-64 22 -114 83t-87 137t-60 157t-33 145q-4 32 -8 83zM172 1091q0 37 24 61t64 29t76 -23q42 -34 40 -70t-28 -60t-64 -30t-68 20q-44 36 -44 73zM476 1097q0 37 24 61t63 29t75 -23q42 -34 40 -70t-27 -60t-63 -30t-68 20q-44 36 -44 73z" />
<glyph unicode="&#xfd;" horiz-adv-x="906" d="M54 770q12 28 38 43t55 15t55 -14t38 -44q6 -76 11 -149t18 -142t42 -134t83 -125q30 -34 70 -35t76 17t61 50t29 64q6 58 0 117t-9 117t1 116t30 116q10 22 34 35t53 17t55 -3t42 -27q-32 -126 -25 -258t31 -264t50 -261t31 -252t-24 -237t-117 -214q-42 -34 -97 -38 t-98 11t-63 46t8 67q18 10 46 13t56 16t51 47t33 106t1 190t-45 300q-112 -64 -205 -61t-165 52t-123 132t-83 181t-43 201t-1 189zM344 1038q40 56 64 105t45 77t45 27t62 -49q-4 -42 -29 -95t-59 -88t-69 -37t-59 60z" />
<glyph unicode="&#xfe;" horiz-adv-x="864" d="M24 1298h160l-6 -314q68 30 150 34t148 -18q84 -26 171 -84t140 -137t51 -174t-96 -195q-156 -90 -285 -119t-233 17q-6 -28 1 -71t17 -88t17 -84t1 -59q-48 -12 -96 -6t-68 52zM243 607q3 -71 39 -108t112 -34t208 55q44 78 37 139t-44 103t-93 64t-110 24t-94 -17 t-44 -59q-14 -96 -11 -167z" />
<glyph unicode="&#xff;" horiz-adv-x="906" d="M54 770q12 28 38 43t55 15t55 -14t38 -44q6 -76 11 -149t18 -142t42 -134t83 -125q30 -34 70 -35t76 17t61 50t29 64q6 58 0 117t-9 117t1 116t30 116q10 22 34 35t53 17t55 -3t42 -27q-32 -126 -25 -258t31 -264t50 -261t31 -252t-24 -237t-117 -214q-42 -34 -97 -38 t-98 11t-63 46t8 67q18 10 46 13t56 16t51 47t33 106t1 190t-45 300q-112 -64 -205 -61t-165 52t-123 132t-83 181t-43 201t-1 189zM200 1091q0 37 24 61t64 29t76 -23q42 -34 40 -70t-28 -60t-64 -30t-68 20q-44 36 -44 73zM504 1097q0 37 24 61t63 29t75 -23 q42 -34 40 -70t-27 -60t-63 -30t-68 20q-44 36 -44 73z" />
<glyph unicode="&#x152;" horiz-adv-x="1908" d="M30 612q2 142 42 271t114 229t170 141t209 6t233 -177q86 -82 141 -200t74 -244t-1 -248t-83 -212t-172 -135t-267 -19q-166 22 -267 111t-148 212t-45 265zM218 610q-2 -88 22 -168t76 -146t140 -106q100 -36 171 -20t116 64t67 121t25 153t-10 158t-37 138 q-62 136 -140 205t-154 67t-144 -75t-108 -219q-22 -84 -24 -172zM806 714q-26 104 8 198t114 171t184 128t222 70t226 -3q32 -10 44 -30t9 -42t-18 -44t-35 -36q-66 2 -142 -8t-150 -33t-137 -61t-99 -91t-39 -121t43 -152l130 118q20 18 49 24t57 2t53 -19t37 -39 q20 -38 12 -74t-32 -67t-57 -58t-65 -49t-56 -39t-30 -27q-6 -38 -11 -74t-3 -67t15 -59t43 -50q50 -40 119 -18t136 72t122 110t79 96q38 62 63 91t44 36t39 -3t48 -26q8 -64 -24 -134t-90 -134t-134 -119t-157 -90t-160 -46t-141 13q-34 12 -67 38t-59 79t-42 139t-16 220 q-106 104 -132 208z" />
<glyph unicode="&#x153;" horiz-adv-x="1278" d="M22 504q2 100 23 188t57 153t82 91q90 34 165 18t134 -68t102 -131t68 -169t34 -184t-1 -176q-16 -66 -65 -116t-115 -79t-138 -35t-132 14q-78 46 -126 125t-69 174t-19 195zM212 423q2 -57 12 -113t33 -96t61 -58t96 4q64 24 93 76t32 117t-16 136t-50 130t-70 100 t-75 46t-66 -31t-44 -132q-4 -26 -6 -74t0 -105zM522 614q34 128 85 210t109 122t120 42t119 -29t104 -92t77 -147q10 -46 -13 -72t-64 -39t-95 -18t-108 -7t-101 -7t-73 -19q-20 -60 -10 -125t41 -120t81 -94t111 -48t131 18t140 103q24 0 43 -9t29 -24t10 -34t-16 -39 q-68 -104 -155 -146t-175 -35t-168 59t-137 134t-83 189t-2 227zM686 708q18 2 53 5t77 6t82 7t66 10q-18 36 -60 52t-88 13t-84 -26t-46 -67z" />
<glyph unicode="&#x178;" horiz-adv-x="1096" d="M89 1249q11 25 42 34t69 4t60 -25q66 -56 109 -110t81 -108t81 -109t109 -113q14 16 35 68t47 118t58 132t69 108t78 48t87 -50q0 -22 -19 -69t-47 -108t-61 -131t-63 -138t-51 -131t-25 -109q-2 -8 -3 -47t-3 -93t-4 -116t-5 -117t-7 -98t-8 -57q-86 -34 -122 -12 t-45 79t0 137t17 162t4 155t-40 115l-422 518q-32 38 -21 63zM294 1413q0 37 24 61t64 29t76 -23q42 -34 40 -70t-28 -60t-64 -30t-68 20q-44 36 -44 73zM598 1419q0 37 24 61t63 29t75 -23q42 -34 40 -70t-27 -60t-63 -30t-68 20q-44 36 -44 73z" />
<glyph unicode="&#x2c6;" horiz-adv-x="490" d="M28 1068l74 182q22 40 54 62t68 25t72 -13t64 -54l114 -184q12 -34 4 -58t-28 -36t-46 -9t-50 27q-18 18 -28 32t-19 30t-21 40t-32 62q-16 -46 -24 -65t-12 -28t-8 -17t-12 -32q-24 -48 -58 -61t-63 -2t-45 39t-4 60z" />
<glyph unicode="&#x2dc;" horiz-adv-x="802" d="M40 1075q12 51 51 91t94 63t101 19q32 -2 56 -16t45 -32t41 -38t44 -34q20 -12 39 -12t34 9t23 27t4 40q-6 20 -18 35t-21 27t-9 26t16 34q94 20 139 -8t50 -77t-23 -105t-76 -94t-112 -44t-130 46q-26 14 -47 39t-59 39q-40 12 -64 -5t-40 -45t-28 -58t-28 -44 q-24 -4 -32 -3t-22 19q-40 50 -28 101z" />
<glyph unicode="&#x2000;" horiz-adv-x="858" />
<glyph unicode="&#x2001;" horiz-adv-x="1717" />
<glyph unicode="&#x2002;" horiz-adv-x="858" />
<glyph unicode="&#x2003;" horiz-adv-x="1717" />
<glyph unicode="&#x2004;" horiz-adv-x="572" />
<glyph unicode="&#x2005;" horiz-adv-x="429" />
<glyph unicode="&#x2006;" horiz-adv-x="286" />
<glyph unicode="&#x2007;" horiz-adv-x="286" />
<glyph unicode="&#x2008;" horiz-adv-x="214" />
<glyph unicode="&#x2009;" horiz-adv-x="343" />
<glyph unicode="&#x200a;" horiz-adv-x="95" />
<glyph unicode="&#x2010;" horiz-adv-x="844" d="M128 465q-14 37 3 68t60 51t97 12l384 -8q40 4 76 -11t53 -41t9 -58t-56 -62l-552 -12q-60 24 -74 61z" />
<glyph unicode="&#x2011;" horiz-adv-x="844" d="M128 465q-14 37 3 68t60 51t97 12l384 -8q40 4 76 -11t53 -41t9 -58t-56 -62l-552 -12q-60 24 -74 61z" />
<glyph unicode="&#x2012;" horiz-adv-x="844" d="M128 465q-14 37 3 68t60 51t97 12l384 -8q40 4 76 -11t53 -41t9 -58t-56 -62l-552 -12q-60 24 -74 61z" />
<glyph unicode="&#x2013;" horiz-adv-x="1175" d="M130.5 465q-20.5 37 4.5 68t88.5 51t144.5 12l569 -8q59 4 112.5 -11t78.5 -41t13 -58t-83 -62l-818 -12q-89 24 -109.5 61z" />
<glyph unicode="&#x2014;" horiz-adv-x="2199" d="M139.5 465q-41.5 37 9 68t178 51t287.5 12l1138 -8q119 4 225.5 -11t157 -41t27 -58t-166.5 -62l-1636 -12q-178 24 -219.5 61z" />
<glyph unicode="&#x2018;" horiz-adv-x="314" d="M78 926q4 26 22 38t39 12t40 -12t25 -36l64 -222q6 -20 -7 -33t-33 -21t-41 -11t-33 -1q-22 26 -37 62t-25 75t-13 77t-1 72z" />
<glyph unicode="&#x2019;" horiz-adv-x="314" d="M78 926q4 26 22 38t39 12t40 -12t25 -36l64 -222q6 -20 -7 -33t-33 -21t-41 -11t-33 -1q-22 26 -37 62t-25 75t-13 77t-1 72z" />
<glyph unicode="&#x201a;" horiz-adv-x="314" d="M60 260q2 26 21 38t40 11t40 -13t25 -36l64 -220q4 -20 -9 -34t-33 -22t-41 -11t-33 -1q-22 26 -37 62t-24 75t-12 78t-1 73z" />
<glyph unicode="&#x201c;" horiz-adv-x="608" d="M50 1092q4 62 4 94q40 48 71 62t53 1t34 -50t16 -89q2 -34 10 -92t5 -112t-26 -89t-85 -21q-42 8 -59 58t-22 113t-1 125zM320 1096q4 62 4 94q40 48 71 62t53 0t34 -50t16 -90q2 -34 11 -91t6 -111t-27 -89t-86 -23q-42 8 -59 58t-22 114t-1 126z" />
<glyph unicode="&#x201d;" horiz-adv-x="608" d="M50 1092q4 62 4 94q40 48 71 62t53 1t34 -50t16 -89q2 -34 10 -92t5 -112t-26 -89t-85 -21q-42 8 -59 58t-22 113t-1 125zM320 1096q4 62 4 94q40 48 71 62t53 0t34 -50t16 -90q2 -34 11 -91t6 -111t-27 -89t-86 -23q-42 8 -59 58t-22 114t-1 126z" />
<glyph unicode="&#x201e;" horiz-adv-x="608" d="M88 248q4 62 6 94q40 48 71 62t53 1t34 -50t16 -89q2 -34 10 -92t5 -112t-27 -88t-86 -22q-42 8 -59 58t-22 113t-1 125zM359 252q3 62 5 94q40 48 71 62t53 0t34 -50t16 -90q2 -22 6 -56t7 -72t2 -75t-12 -64t-35 -41t-66 -6q-40 8 -58 58t-22 114t-1 126z" />
<glyph unicode="&#x2026;" horiz-adv-x="1266" d="M150 125q0 37 24 61t63 29t75 -23q42 -34 40 -69t-27 -60t-63 -31t-68 20q-44 36 -44 73zM565 125q-1 37 23 61t64 29t76 -23q42 -34 40 -69t-27 -60t-63 -31t-68 20q-44 36 -45 73zM980 125q0 37 24 61t64 29t76 -23q42 -34 40 -69t-28 -60t-64 -31t-68 20 q-44 36 -44 73z" />
<glyph unicode="&#x202f;" horiz-adv-x="343" />
<glyph unicode="&#x205f;" horiz-adv-x="429" />
<glyph unicode="&#x20ac;" horiz-adv-x="962" d="M26 548q-4 30 14 51t66 32t144 9q8 2 13 11t7 21t2 24v20h-162q-22 0 -37 16t-21 38t-1 44t25 32q18 10 45 17t55 13t54 9t42 5q8 126 52 208t105 129t132 62t134 8t112 -33t65 -60t-8 -73t-106 -73q-52 72 -101 78t-86 -26t-57 -86t-14 -102q14 -2 42 2t60 7t64 3 t55 -10t32 -30t-5 -58q-2 -10 -21 -25t-31 -19l-228 -54v-64q2 0 27 2t61 3t75 -2t67 -13t39 -28t-11 -50q-16 -24 -58 -39t-86 -24t-79 -14t-35 -11q-2 -24 1 -64t12 -83t24 -85t40 -69t58 -36t77 13q40 28 58 77t37 85t52 44t105 -44q8 -72 -15 -137t-74 -113t-126 -75 t-171 -23q-68 2 -108 38t-64 89t-36 114t-23 114t-25 88t-40 37q-16 0 -40 -6t-52 -9t-59 2t-59 27q-10 36 -14 66z" />
<glyph unicode="&#xe000;" horiz-adv-x="800" d="M0 0v800h800v-800h-800z" />
</font>
</defs>
</svg>
